<?xml version="1.0" standalone="no"?>
<!DOCTYPE svg PUBLIC "-//W3C//DTD SVG 1.1//EN" "http://www.w3.org/Graphics/SVG/1.1/DTD/svg11.dtd" >
<svg xmlns="http://www.w3.org/2000/svg">
<metadata>
Created by FontForge 20120731 at Thu Jul 13 17:46:29 2017
 By admin
</metadata>
<defs>
<font id="iconfont" horiz-adv-x="1024" >
  <font-face 
    font-family="iconfont"
    font-weight="500"
    font-stretch="normal"
    units-per-em="1024"
    panose-1="2 0 6 3 0 0 0 0 0 0"
    ascent="896"
    descent="-128"
    x-height="792"
    bbox="-0.666668 -128.067 1108 922"
    underline-thickness="0"
    underline-position="0"
    unicode-range="U+0078-E893"
  />
<missing-glyph 
 />
    <glyph glyph-name=".notdef" 
 />
    <glyph glyph-name=".notdef" 
 />
    <glyph glyph-name=".null" horiz-adv-x="0" 
 />
    <glyph glyph-name="nonmarkingreturn" horiz-adv-x="341" 
 />
    <glyph glyph-name="x" unicode="x" horiz-adv-x="1001" 
d="M281 543q-27 -1 -53 -1h-83q-18 0 -36.5 -6t-32.5 -18.5t-23 -32t-9 -45.5v-76h912v41q0 16 -0.5 30t-0.5 18q0 13 -5 29t-17 29.5t-31.5 22.5t-49.5 9h-133v-97h-438v97zM955 310v-52q0 -23 0.5 -52t0.5 -58t-10.5 -47.5t-26 -30t-33 -16t-31.5 -4.5q-14 -1 -29.5 -0.5
t-29.5 0.5h-32l-45 128h-439l-44 -128h-29h-34q-20 0 -45 1q-25 0 -41 9.5t-25.5 23t-13.5 29.5t-4 30v167h911zM163 247q-12 0 -21 -8.5t-9 -21.5t9 -21.5t21 -8.5q13 0 22 8.5t9 21.5t-9 21.5t-22 8.5zM316 123q-8 -26 -14 -48q-5 -19 -10.5 -37t-7.5 -25t-3 -15t1 -14.5
t9.5 -10.5t21.5 -4h37h67h81h80h64h36q23 0 34 12t2 38q-5 13 -9.5 30.5t-9.5 34.5q-5 19 -11 39h-368zM336 498v228q0 11 2.5 23t10 21.5t20.5 15.5t34 6h188q31 0 51.5 -14.5t20.5 -52.5v-227h-327z" />
    <glyph glyph-name="shoppingcart" unicode="&#xe600;" 
d="M347 113q20 0 37 -7.5t30.5 -20t20.5 -30t7 -37t-7 -37t-20.5 -30t-30.5 -20.5t-37 -8t-37 8t-30.5 20.5t-20.5 30t-7 37t7 37t20.5 30t30.5 20t37 7.5zM773.5 111q19.5 0 37 -7.5t30.5 -20t20.5 -30t7.5 -37t-7.5 -37t-20.5 -30t-30.5 -20.5t-37 -8t-37 8t-30.5 20.5
t-20.5 30t-7.5 37t7.5 37t20.5 30t30.5 20t37 7.5zM945 692q29 0 45 -7.5t22.5 -19t6 -24t-3.5 -22t-13 -38t-22 -63t-24 -68t-18 -53.5q-13 -41 -33.5 -56.5t-50.5 -15.5h-35h-66h-87h-96h-254l16 -93h516q49 0 49 -42q0 -20 -9.5 -35t-38.5 -15h-49h-95h-118h-120h-98h-57
q-20 0 -34 9.5t-23 24t-15 32t-9 33.5q-1 6 -5.5 29.5t-11 58.5t-15 79t-16.5 88q-19 103 -44 230h-77q-15 0 -25 7.5t-17 18.5t-9.5 23t-2.5 23q0 20 14 33.5t37 13.5h23h20h26h35q20 0 32.5 -6.5t19.5 -15.5t10 -19t5 -18t4.5 -23t4.5 -30q3 -18 6 -39h700z" />
    <glyph glyph-name="search" unicode="&#xe6ab;" 
d="M798 461q0 -134 -87 -237q195 -195 232 -231q21 -20 7 -40q-13 -20 -38 -5q-6 4 -12 11q-11 11 -68 67.5t-108.5 107.5t-52.5 51q-102 -88 -237 -88q-99 0 -183 48.5t-133 132.5t-49 183t49 183t133 133t183 49t183 -49t132.5 -133t48.5 -183zM434 768q-127 0 -217 -90
t-90 -217t90 -217t217 -90t217 90t90 217t-90 217t-217 90z" />
    <glyph glyph-name="back" unicode="&#xe604;" 
d="M771 820l-63 63l-498 -499l498 -498l63 63l-435 435z" />
    <glyph glyph-name="plus" unicode="&#xe625;" 
d="M0 424h1024v-80h-1024v80zM472 896h80v-1024h-80v1024z" />
    <glyph glyph-name="type-c" unicode="&#xe650;" horiz-adv-x="1025" 
d="M148 -128h-108l-39 1l-1 39v174q3 130 71 198q70 70 170 70t170.5 -70.5t70.5 -170.5t-70 -170q-68 -68 -198 -71h-66zM56 -72q120 -1 156 0q109 2 160 54q55 54 55 131t-54.5 131.5t-131.5 54.5t-131 -54q-52 -52 -54 -161q-1 -36 0 -156zM241 414q-100 0 -170 70
q-68 68 -71 198v174l1 39l39 1q129 1 174 0q130 -3 198 -71q70 -70 70 -170t-70.5 -170.5t-170.5 -70.5zM56 840q-1 -120 0 -156q2 -109 54 -161q54 -54 131 -54t131.5 54.5t54.5 131.5t-54 131q-52 52 -161 54q-36 1 -156 0zM876 -128h-66q-130 3 -198 71q-70 70 -70 170
t70.5 170.5t170.5 70.5t170 -70q68 -68 71 -198q1 -43 0 -174l-1 -39l-39 -1h-108zM783 299q-77 0 -131.5 -54.5t-54.5 -131.5t55 -131q51 -52 160 -54q37 -1 156 0q1 120 0 156q-2 109 -54 160q-54 55 -131 55zM783 414q-100 0 -170.5 70.5t-70.5 170.5t70 170
q68 68 198 71h174l39 -1l1 -39q1 -131 0 -174q-3 -130 -71 -198q-70 -70 -170 -70zM876 841q-44 0 -64 -1q-109 -2 -160 -54q-55 -54 -55 -131t54.5 -131.5t131.5 -54.5t131 54q52 52 54 161q1 36 0 156q-50 1 -92 1z" />
    <glyph glyph-name="add-two" unicode="&#xe66f;" 
d="M512 -128q-139 0 -257 68.5t-186.5 186.5t-68.5 257t68.5 257t186.5 186.5t257 68.5t257 -68.5t186.5 -186.5t68.5 -257t-68.5 -257t-186.5 -186.5t-257 -68.5zM512 839q-93 0 -177 -36t-145 -97t-97 -145t-36 -177t36 -177t97 -145t145 -97t177 -36t177 36t145 97
t97 145t36 177t-36 177t-97 145t-145 97t-177 36zM825 356h-285v-285q0 -13 -14 -18.5t-28 0t-14 18.5v285h-285q-13 0 -18.5 14t-0.5 28t19 14h285v285q0 13 14 18.5t28 0.5t14 -19v-285h285q12 0 18 -14t0.5 -28t-18.5 -14z" />
    <glyph glyph-name="link-b" unicode="&#xe6b0;" 
d="M839 710q-66 65 -150 100t-176 35t-176.5 -35t-149.5 -100.5t-100 -149.5t-35 -176t35 -176.5t100 -149.5t149.5 -100t176.5 -35t176 35t150 100q88 88 119.5 207t0 237.5t-119.5 207.5zM574 259l-113 -114q-39 -38 -93 -38v0q-54 1 -93 39l-6 6q-38 39 -38 93t39 93
l69 69l27 -28l-69 -69q-27 -27 -27.5 -65t26.5 -66l6 -6q28 -27 66 -27v0q38 0 66 27l113 113q28 27 28 65.5t-27 65.5l-6 6l27 27l6 -6q38 -39 38 -93t-39 -92zM756 430l-59 -58l-27 27l59 58q27 27 27 65.5t-27 65.5l-6 7q-27 27 -65.5 27t-65.5 -27l-114 -113
q-27 -27 -27 -65.5t27 -65.5l6 -6l-27 -27l-6 6q-39 38 -38.5 92.5t38.5 92.5l114 113q39 38 93 38t92 -38l7 -7q38 -38 37.5 -92.5t-38.5 -92.5z" />
    <glyph glyph-name="order-a" unicode="&#xe614;" 
d="M898 -64h-777q-25 0 -42.5 17.5t-17.5 42.5v776q0 25 17.5 42.5t42.5 17.5h777q24 0 41.5 -17.5t17.5 -42.5v-776q0 -25 -17.5 -42.5t-41.5 -17.5v0zM241 135h487q13 0 21.5 7.5t8.5 18t-8.5 17.5t-21.5 7h-487q-13 0 -22 -7t-9 -17.5t9 -18t22 -7.5v0zM239 285h391
q12 0 20.5 7t8.5 17.5t-8.5 17.5t-20.5 7h-391q-12 0 -20.5 -7t-8.5 -17.5t8.5 -17.5t20.5 -7v0zM709 782l-36 -99h-327l-36 99h-49l62 -148h373l63 148h-50v0zM777 484h-536q-13 0 -22 -7.5t-9 -17.5t9 -17.5t22 -7.5h536q13 0 22 7.5t9 17.5t-9 17.5t-22 7.5v0z" />
    <glyph glyph-name="delete-c" unicode="&#xe627;" 
d="M572 384l439 439q13 12 13 30t-12.5 30.5t-30.5 12.5t-30 -13l-439 -439l-439 439q-12 13 -30 13t-30.5 -12.5t-12.5 -30.5t13 -30l438 -439l-438 -439q-13 -12 -13 -30t13 -30q12 -13 30 -13t30 13l439 438l439 -438q12 -13 30 -13t30.5 12.5t12.5 30.5t-13 30z" />
    <glyph glyph-name="hint-two" unicode="&#xe620;" 
d="M512 832q-91 0 -173.5 -35t-142.5 -95t-95.5 -142.5t-35.5 -173.5t35.5 -174t95.5 -142.5t142.5 -95t173.5 -35.5t173.5 35.5t142.5 95t95.5 142.5t35.5 174t-35.5 173.5t-95.5 142.5t-142.5 95t-173.5 35zM567 202q-3 -29 -27.5 -41.5t-49.5 -1.5q-24 10 -30 40
q-1 0 -1 11q0 23 11 36q17 20 45 19q26 -1 40.5 -19t11.5 -44zM571 553q-1 -11 -6.5 -32t-6.5 -29q-9 -46 -14 -77q-1 -7 -9 -74q-1 -5 -1.5 -10.5t-1 -12.5t-1.5 -10h-35l-1 3q-1 11 -3.5 30t-4.5 35t-4 30q-6 34 -16 87q-2 10 -7 29t-6 24q-4 14 -3 23q5 43 45 52
q3 0 9 0.5t10.5 0.5h5.5q37 -3 49 -36q4 -13 1 -33z" />
    <glyph glyph-name="link-a" unicode="&#xe685;" 
d="M420 271q-9 0 -16 7q-67 67 -67 162t67 162l163 164q67 67 162.5 67t162.5 -67q67 -68 67 -163t-67 -162l-75 -75q-6 -6 -15 -6t-15.5 6.5t-6.5 15.5t6 16l75 74q54 54 54 131t-54.5 131t-131 54t-130.5 -54l-164 -163q-54 -54 -54 -131t54 -131q7 -7 7 -16t-6.5 -15.5
t-15.5 -6.5zM294.5 -62q-95.5 0 -162.5 68q-67 67 -67 162t67 162l75 75q6 6 15 6t15.5 -6.5t6.5 -15.5t-6 -16l-75 -74q-54 -54 -54 -131t54 -131t131 -54t131 54l164 163q54 54 54 131t-54 131q-7 7 -7 16t6.5 15.5t15.5 6.5t16 -6q67 -68 67 -163t-67 -162l-163 -163
q-67 -68 -162.5 -68z" />
    <glyph glyph-name="hot-a" unicode="&#xe6ac;" 
d="M337 350zM577 116zM337 350q-5 1 -16.5 13t-16.5 19q-20 29 -31 56l-14 40q-1 2 -3.5 12.5t-5.5 17t-6 9.5q-9 10 -22.5 8.5t-20.5 -12.5q-5 -9 -12 -25t-9 -20t-5 -12t-4 -11q-19 -41 -30 -101q-6 -32 -6 -48q1 -39 1 -43q3 -34 13 -75q12 -47 35 -83q2 -3 4 -7
q10 -17 23 -32q15 -17 25 -28q12 -12 29 -25q14 -11 39 -26q20 -12 52 -24q11 -4 16 -5q1 -1 3.5 -1.5t4.5 -1.5q4 -1 9 -2l17 -4q1 0 2.5 -0.5t2.5 -0.5h-1q-1 1 -3 2l-3 2l-3 2q-1 1 -2 1.5t-1.5 1l-1.5 1.5q-16 12 -22 19l-3 5q-2 2 -7 9q-3 3 -5 6l-0.5 1t-1 1.5t-1 1.5
t-1.5 2l-3.5 7l-3.5 7q-1 1 -2 3.5t-1 3.5q-1 1 -3 7q-5 13 -7 25q-3 12 -3 18q0 2 -0.5 5.5t-0.5 4.5v21q0 2 0.5 5.5t0.5 4.5q0 7 2 19q2 10 4 16q1 1 1 2.5t1 1.5q1 3 3 8.5t3 6.5q2 5 7 13.5t6 10.5l5 11l0.5 1.5l0.5 1.5q6 17 8 30v2v2q1 17 1 19q5 9 15 6q8 -2 21 -15
l3 -4q1 -1 1 -2q15 -20 20 -54l0.5 -2l0.5 -2l2 2q7 13 10 21q0 1 0.5 2l0.5 1l6 17q5 17 8 45q0 5 1 17v9q0 19 -2 33q-2 13 -1 16q2 6 9 9q5 1 19 -5q8 -3 20 -11q17 -12 28 -25l1.5 -1.5l1.5 -1.5l2 -2l5 -7q10 -12 20 -34q0 -1 0.5 -2l0.5 -1l4 -12l6 -18q3 -12 5 -31
q2 -24 0 -51q-1 -4 -5 -27v-1.5v-2.5q6 2 15 16q10 14 15 26l7 20q6 18 7 19q5 4 11.5 3.5t9.5 -5.5q2 -4 5.5 -12t4.5 -10t2.5 -5.5t2.5 -5.5q9 -20 14 -49q3 -16 3 -23q0 -17 -1 -21q-1 -17 -6 -36q-5 -23 -17 -40l-2 -4q-4 -7 -11 -15t-12 -13.5t-10 -8.5q25 8 45 19
q3 1 7 3l14 8q3 2 7 4l7 4q0 1 6 5q2 1 6 4q2 1 3 2q33 25 45 41l8 9q5 4 15 18q6 9 9 13q3 5 4 6q2 4 4 7q3 5 8.5 15t7 13t3.5 8.5t3 6.5q2 5 6 16q9 25 15 51q4 25 5 37q0 3 1 10t1 11v13v16v14q0 4 -0.5 11t-0.5 10q0 15 -5 39q-5 22 -9 34q0 3 -2 9t-7 17t-6 13
q-4 10 -15 29t-12 21l-10 22q-3 6 -3 7q-12 34 -16 61q-1 7 -1 10q0 5 1 13t0.5 14t-4.5 11q-3 7 -11.5 11.5t-17.5 1.5q-16 -4 -43 -31l-8 -9q0 -1 -1 -2t-2 -1q-30 -42 -40 -112q-2 -8 -2 -10l-3 6q-15 25 -21 43q-1 1 -2 3t-1 4l-11 34q-11 36 -17 94q-1 10 -2 34l-1 19
q0 39 5 69q3 26 2 33q-4 13 -19 18q-6 1 -8 1.5t-8.5 -1.5t-8.5 -3t-8 -3.5t-8 -3.5q-17 -8 -41 -24q-34 -23 -58 -51l-2.5 -2.5t-2 -2.5t-2 -2.5l-2.5 -2.5l-12 -15q-20 -25 -40 -70q0 -1 -1 -3t-2 -3q-3 -8 -8 -24l-12 -39q-6 -23 -10 -63q-5 -49 0 -106q1 -9 9 -56
l0.5 -3t1.5 -5v0z" />
    <glyph glyph-name="delete-e" unicode="&#xe61d;" 
d="M512 848q-94 0 -180 -36.5t-148.5 -99t-99 -148.5t-36.5 -180t36.5 -180t99 -148.5t148.5 -99t180 -36.5t180 36.5t148.5 99t99 148.5t36.5 180t-36.5 180t-99 148.5t-148.5 99t-180 36.5zM704 225q7 -7 7 -17t-6.5 -16.5t-16.5 -6.5t-17 7l-159 159l-159 -159
q-7 -7 -17 -7t-16.5 6.5t-6.5 16.5t7 17l159 159l-159 159q-7 7 -7 17t7 16v0q6 7 16 7t17 -7l159 -159l159 159q7 7 17 7t16 -7v0q7 -6 7 -16t-7 -17l-159 -159z" />
    <glyph glyph-name="takephoto" unicode="&#xe691;" 
d="M526 506q-71 0 -121 -50t-50 -120.5t50 -120.5t120.5 -50t120.5 50t50 120.5t-50 120.5t-120 50v0zM935 634h-186q-27 19 -47 60q-8 17 -29.5 27t-38.5 12l-18 1h-216q-3 1 -7.5 0.5t-17 -10t-24.5 -29.5q-24 -43 -48 -61h-186q-26 0 -43.5 -18.5t-17.5 -45.5v-497
q0 -27 17.5 -45.5t43.5 -18.5h818q25 0 42.5 18.5t17.5 45.5v497q0 27 -17.5 45.5t-42.5 18.5v0zM525 122q-88 0 -150.5 62.5t-62.5 151t62.5 151t151 62.5t151 -62.5t62.5 -151t-62.5 -151t-151.5 -62.5v0zM831 506q-14 0 -24.5 10.5t-10.5 25.5t10.5 25.5t25 10.5
t25 -10.5t10.5 -25.5t-10.5 -25.5t-25.5 -10.5v0zM831 506z" />
    <glyph glyph-name="notebook" unicode="&#xe69f;" 
d="M172 590v0h674q12 0 20 -8t8 -20v0v-446q0 -11 -8 -19.5t-20 -8.5h-1h-673q-12 0 -20 8t-8 20v1v445q0 12 8 20t20 8v0zM90 7v0q-12 0 -20 8.5t-8 20t8 19.5t20 8h838q12 0 20 -8t8 -19.5t-8 -20t-20 -8.5h-838v0zM818 534v0h-619v-390h619v390v0z" />
    <glyph glyph-name="up-sort" unicode="&#xe678;" 
d="M967 327l-512 512l57 57l512 -512zM57 327l-57 57l512 512l57 -57l-512 -512v0zM552 -128h-80v916h80v-916zM552 -98z" />
    <glyph glyph-name="help" unicode="&#xe606;" 
d="M512.5 832q-90.5 0 -173 -35.5t-142.5 -95t-95 -142t-35 -173t35 -173t95 -142.5t142.5 -95t173 -35t173 35t142 95t95 142.5t35.5 173t-35.5 173t-95 142t-142 95t-173 35.5zM539.5 172q-13.5 -12 -30.5 -12q-18 0 -32 12t-14 33q0 19 13.5 32t32.5 13t31.5 -13
t12.5 -32q0 -21 -13.5 -33zM651.5 449q-10.5 -19 -24.5 -33t-51 -47q-10 -9 -16 -16t-9 -13t-5 -11.5t-5 -20.5q-6 -31 -36 -31q-15 0 -25.5 10t-10.5 30q0 25 7.5 43.5t20.5 32.5t35 33q19 17 27.5 25t14 18.5t5.5 23.5q0 23 -17.5 39.5t-45.5 16.5q-33 0 -48.5 -16.5
t-26.5 -48.5q-10 -34 -38 -34q-17 0 -28.5 12t-11.5 26q0 28 18.5 57t53 48t81.5 19q43 0 76 -16t51.5 -43.5t18.5 -59.5q0 -25 -10.5 -44z" />
    <glyph glyph-name="telescope" unicode="&#xe69d;" 
d="M261 591l55 89v0q27 41 76 41t75 -41h118q27 41 76 41t75 -41v0l56 -89q-27 9 -56 9q-44 0 -82.5 -21.5t-61.5 -58.5h-131q-24 37 -62 58.5t-82 21.5q-29 0 -56 -9zM971 246q0 -82 -58.5 -140.5t-141.5 -58.5q-52 0 -96 24.5t-72 66.5q-29 -38 -77 -38t-77 38
q-27 -42 -71.5 -66.5t-95.5 -24.5q-83 0 -141.5 58.5t-58.5 140.5q0 59 32 108h-1l107 172q40 40 97 40q37 0 69 -19t50 -52l5 -9h171l5 9q17 33 49.5 52t69.5 19q56 0 96 -40l107 -172v0q32 -49 32 -108zM406 246.5q0 51.5 -36.5 88t-88 36.5t-88 -36.5t-36.5 -88t36.5 -88
t88 -36.5t88 36.5t36.5 88zM572 196q0 19 -13.5 32.5t-32.5 13.5t-32 -13.5t-13 -32.5t13 -32t32 -13t32.5 13t13.5 32zM895 246.5q0 51.5 -36.5 88t-88 36.5t-88 -36.5t-36.5 -88t36.5 -88t88 -36.5t88 36.5t36.5 88z" />
    <glyph glyph-name="cry" unicode="&#xe626;" 
d="M512 834q-186 0 -318 -132t-132 -318t132 -318t318 -132t318 132t132 318t-132 318t-318 132zM512 -17q-109 0 -201.5 53.5t-146 146t-53.5 201.5t53.5 201.5t146 146t201.5 53.5t201.5 -53.5t146 -146t53.5 -201.5t-53.5 -201.5t-146 -146t-201.5 -53.5zM622 248
q-55 21 -114.5 20t-114.5 -23q-63 -26 -98 -62q-7 -7 -7 -16.5t6.5 -16t16.5 -6.5t16 7q3 2 7 6q1 1 3.5 3t4.5 3l1 1l1 1v0q4 3 6 4q14 11 31 20q10 5 19 10q1 0 3 1t3 1v0l1 1q8 3 13 5q54 19 111 15q5 -1 15 -2h2h1t3.5 -0.5t3.5 -0.5q14 -3 28 -7q10 -2 24 -7
q4 -2 11 -5h2q1 -1 7 -4q27 -12 54 -32v-1q1 0 4 -2l6 -6q1 0 2.5 -1.5l2.5 -2.5q7 -7 16.5 -7t16 6.5t6.5 16t-7 16.5q-39 39 -107 65zM682 163h2h-2zM343.5 460q12.5 13 12.5 31t-12.5 30.5t-30.5 12.5t-31 -13q-13 -12 -13 -30t13 -31t31 -13t30.5 13zM711 534
q-18 0 -30 -13q-13 -12 -13 -30t12.5 -31t30.5 -13t31 13t13 31t-13 30.5t-31 12.5z" />
    <glyph glyph-name="delete-x" unicode="&#xe64c;" 
d="M854 726q-70 69 -160.5 105t-181.5 36t-181.5 -36t-160 -105.5t-105.5 -160t-36 -181.5t36 -181.5t105.5 -160t160 -105.5t181.5 -36t181.5 36t160.5 105q92 93 125 217.5t0 249t-125 217.5zM718 149l-206 206l-206 -206q-6 -6 -14.5 -6t-14.5 6t-6 14.5t6 14.5l206 206
l-206 206q-6 6 -6 14.5t6 14.5t14.5 6t14.5 -6l206 -206l206 206q6 6 14.5 6t14.5 -6t6 -14.5t-6 -14.5l-206 -206l206 -206q6 -6 6 -14.5t-6 -14.5t-14.5 -6t-14.5 6z" />
    <glyph glyph-name="money" unicode="&#xe60b;" 
d="M512 896q-139 0 -257 -68.5t-186.5 -186.5t-68.5 -257t68.5 -257t186.5 -186.5t257 -68.5t257 68.5t186.5 186.5t68.5 257t-68.5 257t-186.5 186.5t-257 68.5zM683 427v-64h-128v-64h128v-64h-128v-107h-86v107h-128v64h128v64h-128v64h93l-93 170h86l85 -156l85 156h86
l-93 -170h93z" />
    <glyph glyph-name="pass" unicode="&#xe686;" 
d="M512 896q-140 0 -257.5 -68.5t-186 -186t-68.5 -257.5t68.5 -257.5t186 -186t257.5 -68.5t257.5 68.5t186 186t68.5 257.5t-68.5 257.5t-186 186t-257.5 68.5zM512 -81q-94 0 -180.5 37t-148.5 99t-99 148.5t-37 180.5t37 180.5t99 148.5t148.5 99t180.5 37t180.5 -37
t148.5 -99t99 -148.5t37 -180.5t-37 -180.5t-99 -148.5t-148.5 -99t-180.5 -37zM445 254l-173 193l-32 -33l200 -225l368 342l-33 32z" />
    <glyph glyph-name="OA-t" unicode="&#xe654;" horiz-adv-x="1053" 
d="M996 783h-290q-20 0 -34 -14.5t-14 -34.5v-123h17h159h79q13 0 22 -14t9 -33t-9 -32.5t-22 -13.5h-79h-162h-14v-93h17h159h79q13 0 22 -13.5t9 -32.5t-9 -32.5t-22 -13.5h-79h-162h-14v-76h17h159h79q13 0 22 -13.5t9 -32.5t-9 -32.5t-22 -13.5h-79h-162h-14v-142
q0 -20 14 -34.5t34 -14.5h290q20 0 34.5 14.5t14.5 34.5v711q0 20 -14.5 34.5t-34.5 14.5zM176 448q-35 0 -53 -29q-17 -24 -17 -62q0 -37 17 -62q18 -30 52.5 -30t53.5 29q16 25 16 63t-16 62q-18 29 -53 29zM368 336h78l-39 94zM539 873l-484 -89q-20 -4 -34 -20.5
t-14 -37.5l2 -686q0 -20 14 -37t34 -21l483 -98q19 -4 33 7.5t14 31.5v910q0 20 -14 32t-34 8zM256 270q-29 -39 -80 -39t-81 39q-26 35 -26 87.5t26 86.5q30 39 81 39t80 -39q26 -34 26 -86.5t-26 -87.5zM489 234l-28 68h-107l-28 -68h-39l102 247h36l102 -247h-38z" />
    <glyph glyph-name="minus" unicode="&#xe6f6;" 
d="M544 832q-130 0 -240.5 -64.5t-175 -175t-64.5 -240.5t64.5 -240.5t175 -175t240.5 -64.5t240.5 64.5t175 175t64.5 240.5t-64.5 240.5t-175 175t-240.5 64.5zM544 -64q-172 0 -294 122t-122 294t122 294t294 122t294 -122t122 -294t-122 -294t-294 -122zM800 384h-512
q-13 0 -22.5 -9.5t-9.5 -22.5t9.5 -22.5t22.5 -9.5h512q13 0 22.5 9.5t9.5 22.5t-9.5 22.5t-22.5 9.5z" />
    <glyph glyph-name="collect" unicode="&#xe6d1;" horiz-adv-x="1039" 
d="M768 -111h-1q-18 0 -34 6l-221 84l-221 -84q-17 -6 -35 -6q-32 0 -58 19q-43 31 -40 84l15 233l-151 186q-34 42 -17 93q8 24 26.5 41t43.5 23l227 56l127 202q29 45 83 45t83 -45l126 -202l228 -56q24 -6 42.5 -23t26.5 -41q17 -51 -16 -93l-151 -186l14 -224
q1 -7 1 -15q0 -40 -28.5 -68.5t-69.5 -28.5v0zM512 26q4 0 8 -1l229 -87q9 -4 19 -4v0q21 0 36.5 15.5t15.5 36.5q0 5 -1 9v2l-14 234q-1 9 5 16l156 193q18 22 9 49.5t-37 34.5l-237 58q-9 2 -14 10l-131 209q-15 25 -44 25t-44 -25l-132 -209q-5 -8 -14 -10l-237 -58
q-28 -7 -37 -34.5t9 -49.5l157 -193q5 -7 5 -16l-15 -241q-2 -29 21 -46q14 -10 31 -10q10 0 18 4l230 87q4 1 8 1z" />
    <glyph glyph-name="calendar" unicode="&#xe6fb;" 
d="M736 62h41q17 0 29.5 9t12.5 22t-12.5 22.5t-29.5 9.5h-41q-18 0 -30.5 -9.5t-12.5 -22.5t12.5 -22t30.5 -9zM484 62h41q17 0 29.5 9t12.5 22t-12 22.5t-30 9.5h-41q-17 0 -29.5 -9.5t-12.5 -22.5t12.5 -22t29.5 -9zM736 251h41q17 0 29.5 9.5t12.5 22.5t-12.5 22
t-29.5 9h-41q-18 0 -30.5 -9t-12.5 -22t12.5 -22.5t30.5 -9.5zM484 251h41q18 0 30 9.5t12 22.5t-12 22t-30 9h-41q-17 0 -29.5 -9t-12.5 -22t12.5 -22.5t29.5 -9.5zM823 756h-64v90v3q0 12 -9 21.5t-21.5 9.5t-21.5 -9t-9 -22v0v-93h-383v90v3q0 12 -9 21.5t-22 9.5t-22 -9
t-9 -22v0v-93h-67q-80 0 -132.5 -54.5t-52.5 -152.5v-489q0 -73 48.5 -126.5t119.5 -60.5l654 -1q76 0 130.5 55.5t54.5 132.5v508q0 78 -54.5 133t-130.5 55zM945 42q0 -44 -33 -75.5t-80 -31.5h-655q-47 0 -80 31.5t-33 75.5v399h881v-399v0zM945 587v-83h-881v83
q0 42 34.5 74t91.5 32h63v-95v0q0 -12 9 -21t22 -9t22 9.5t9 21.5v3v91h383v-95v0q0 -12 9 -21t21 -9q13 0 22 9.5t9 21.5v3v91h60q50 0 90 -31.5t36 -74.5zM232 62h41q18 0 30.5 9t12.5 22t-12.5 22.5t-30.5 9.5h-41q-17 0 -29.5 -9.5t-12.5 -22.5t12.5 -22t29.5 -9z
M232 251h41q18 0 30.5 9.5t12.5 22.5t-12.5 22t-30.5 9h-41q-17 0 -29.5 -9t-12.5 -22t12.5 -22.5t29.5 -9.5z" />
    <glyph glyph-name="back-a" unicode="&#xe72e;" 
d="M747 361v0q9 9 9 22.5t-9 23.5l-423 415q-9 9 -23 9t-23.5 -9.5t-9.5 -23t9 -22.5l399 -392l-399 -392q-9 -9 -9 -22.5t9.5 -23t23.5 -9.5t23 9l423 415v0zM747 361v0q9 9 9 22.5t-9 23.5l-423 415q-9 9 -23 9t-23.5 -9.5t-9.5 -23t9 -22.5l399 -392l-399 -392
q-9 -9 -9 -22.5t9.5 -23t23.5 -9.5t23 9l423 415v0z" />
    <glyph glyph-name="information" unicode="&#xe743;" 
d="M1006 751q-8 47 -49 56l-4 1h-20h-2h-36h-2h-2v0q-11 -2 -18.5 -10.5t-7.5 -19.5v-9q0 -12 7.5 -20.5t18.5 -9.5v0h3h0.5h0.5h36h0.5h0.5h6q1 -7 1 -13l-1 -2v-726q-2 -32 -21 -47q-8 -7 -19 -10h-56v1q-32 1 -44 27q-7 17 -7 35v0v755q4 64 -30 96q-28 27 -68 24h-600
q-40 0 -65 -28q-31 -35 -27 -94v-753q-1 -31 12 -60q30 -66 110 -72h2h782q25 4 49 22q48 34 51 101v1v724q2 16 -1 31v0zM127 -59q-37 3 -50 29q-7 15 -7 31v1v758v2q-3 29 10 43q4 5 14 5h603q10 0 16 -5q11 -11 9 -43v-1v-755q-1 -33 13 -65h-608v0zM648 702
q0 -15 -11 -26t-26 -11h-432q-15 0 -26 11t-11 26v0q0 15 11 25.5t26 10.5h432q15 0 26 -10.5t11 -25.5v0v0zM648 49zM646 500q0 -15 -10.5 -26t-25.5 -11h-433q-15 0 -25.5 11t-10.5 26v0q0 15 10.5 25.5t25.5 10.5h433q15 0 25.5 -10.5t10.5 -25.5zM646 302
q0 -15 -10.5 -25.5t-25.5 -10.5h-433q-15 0 -25.5 10.5t-10.5 25.5v0q0 15 10.5 26t25.5 11h433q15 0 25.5 -11t10.5 -26zM359 104q0 -15 -10.5 -26t-25.5 -11h-146q-15 0 -25.5 11t-10.5 26v0q0 15 10.5 25.5t25.5 10.5h146q15 0 25.5 -10.5t10.5 -25.5v0v0zM359 104z" />
    <glyph glyph-name="choice-o" unicode="&#xe651;" 
d="M512 862q-98 0 -186.5 -37.5t-152.5 -101.5t-101.5 -152.5t-37.5 -186.5t37.5 -186.5t101.5 -152.5t152.5 -101.5t186.5 -37.5t186.5 37.5t152.5 101.5t101.5 152.5t37.5 186.5t-37.5 186.5t-101.5 152.5t-152.5 101.5t-186.5 37.5zM512 -39q-114 0 -211.5 57
t-154.5 154.5t-57 211.5t57 211.5t154.5 154.5t211.5 57t211.5 -57t154.5 -154.5t57 -211.5t-57 -211.5t-154.5 -154.5t-211.5 -57z" />
    <glyph glyph-name="hint-one" unicode="&#xe80a;" 
d="M863 735q-71 72 -164 109.5t-187 37.5t-187 -37.5t-164 -109.5q-72 -71 -109.5 -164t-37.5 -187t37.5 -187t109 -164.5t164.5 -108.5t187.5 -37t187 37t164.5 109q96 95 130 223t-0.5 256t-130.5 223zM512 72q-17 0 -29 12t-12 29t12 29.5t29 12.5t29 -12.5t12 -29.5
t-12 -29t-29 -12zM543 228q0 -13 -9 -22t-22 -9t-22 9t-9 22l-21 416q0 22 15 37t37 15t37 -15t15 -37z" />
    <glyph glyph-name="type-b" unicode="&#xe6c0;" 
d="M490 508q0 -43 -30 -72.5t-72 -29.5h-252q-42 0 -72 30t-30 72v252q0 42 30 72t72 30h252q42 0 72 -30t30 -72v-252zM431 760q0 18 -12.5 30.5t-30.5 12.5h-252q-18 0 -30.5 -12.5t-12.5 -30.5v-252q0 -18 12.5 -30.5t30.5 -12.5h252q18 0 30.5 12.5t12.5 30.5v252v0z
M152 626q-6 0 -10.5 4.5t-4.5 10.5v27q0 31 18.5 53.5t46.5 22.5h91q6 0 10.5 -4t4.5 -11q0 -6 -4 -10t-11 -4h-91q-16 0 -25.5 -15t-9.5 -33v-26q0 -6 -4.5 -10.5t-10.5 -4.5v0v0zM146 576q-5 0 -10 4q-4 5 -4 11q0 5 4 11q4 4 10.5 4t9.5 -4q5 -5 5 -11t-5 -10
q-3 -5 -10 -5v0v0zM990 508q0 -43 -30 -72.5t-72 -29.5h-252q-43 0 -72.5 29.5t-29.5 72.5v252q0 42 29.5 72t72.5 30h252q42 0 72 -30t30 -72v-252v0zM931 760q0 18 -12.5 30.5t-30.5 12.5h-252q-18 0 -30.5 -12.5t-12.5 -30.5v-252q0 -18 12.5 -30.5t30.5 -12.5h252
q18 0 30.5 12.5t12.5 30.5v252v0zM490 8q0 -42 -30 -72t-72 -30h-252q-42 0 -72 30t-30 72v252q0 43 30 72.5t72 29.5h252q42 0 72 -29.5t30 -72.5v-252zM431 260q0 18 -12.5 30.5t-30.5 12.5h-252q-18 0 -30.5 -12.5t-12.5 -30.5v-252q0 -18 12.5 -30.5t30.5 -12.5h252
q18 0 30.5 12.5t12.5 30.5v252v0zM990 8q0 -42 -30 -72t-72 -30h-252q-43 0 -72.5 30t-29.5 72v252q0 43 29.5 72.5t72.5 29.5h252q42 0 72 -29.5t30 -72.5v-252v0zM931 260q0 18 -12.5 30.5t-30.5 12.5h-252q-18 0 -30.5 -12.5t-12.5 -30.5v-252q0 -18 12.5 -30.5
t30.5 -12.5h252q18 0 30.5 12.5t12.5 30.5v252v0zM931 260z" />
    <glyph glyph-name="refuse" unicode="&#xe68c;" 
d="M510.5 896q-103.5 0 -198 -40.5t-163 -109t-109 -163t-40.5 -198t40.5 -198t109 -163t163 -109t198 -40.5t198 40.5t163 109t109 163t40.5 198t-40.5 198t-109 163t-163 109t-198 40.5zM511 845q170 0 299 -111l-648 -648q-111 129 -111 299q0 94 36.5 179t98 146.5
t146.5 98t179 36.5zM511 -74q-90 0 -170.5 32.5t-142.5 90.5l649 649q58 -62 90.5 -142.5t32.5 -170.5q0 -93 -36.5 -178t-98 -146.5t-146.5 -98t-178 -36.5z" />
    <glyph glyph-name="freeze" unicode="&#xe656;" 
d="M365 104q-87 12 -155.5 41t-105.5 69v-64v-36q0 -29 28.5 -58t77 -52.5t121 -38t153.5 -14.5h4q-87 56 -123 153zM656 473q-108 0 -185 -76.5t-77 -184.5t77 -185t185 -77t184.5 77t76.5 185t-76.5 184.5t-184.5 76.5zM495 212q0 67 47 114t114 47q36 0 71 -17l-215 -215
q-17 35 -17 71zM656 51q-38 0 -73 18l215 216q19 -36 19 -73q0 -67 -47.5 -114t-113.5 -47zM346 212q0 38 9 75q-84 13 -149.5 41.5t-101.5 66.5v-39v-61q0 -47 69 -90.5t180 -62.5q-7 34 -7 70zM857 448q7 14 7 28v100q-38 -41 -109 -70q57 -19 102 -58zM467 458
q-120 3 -217.5 35t-145.5 83v-100q0 -48 72.5 -92.5t189.5 -61.5q31 82 101 136zM530 496q60 26 126 26q15 0 31 -1q81 23 129 60.5t48 75.5q0 29 -28.5 58.5t-77 52.5t-121 38t-153.5 15t-153.5 -15t-121 -38t-77 -52.5t-28.5 -58t28.5 -58t77 -52.5t121 -38t153.5 -15
q24 0 46 2z" />
    <glyph glyph-name="balance-b" unicode="&#xe65c;" 
d="M342 111q-110 0 -187 42.5t-78 103.5v-58q0 -60 77.5 -103t187 -43t187 43t77.5 103v58q0 -60 -77.5 -103t-186.5 -43v0zM342 10q-110 0 -187 42.5t-78 102.5v-57q0 -61 77.5 -104t187 -43t187 43t77.5 104v58q0 -61 -77.5 -103.5t-186.5 -42.5v0zM342 10zM680 179
q-10 0 -25 1v-3.5v-4.5q2 -8 2 -16v-35h24q109 0 186.5 42.5t77.5 103.5v58q0 -60 -77.5 -103t-187.5 -43v0zM680 179zM680 281h-25v-3.5v-3.5q2 -8 2 -17v-34q12 -1 24 -1q109 0 186.5 43t77.5 104v58q0 -61 -77.5 -103.5t-187.5 -42.5v0zM680 281zM680 484
q-109 0 -186.5 42.5t-77.5 102.5v-57q0 -51 58 -91q55 -15 96 -42q53 -13 110 -13q110 0 187.5 42.5t77.5 103.5v58q0 -60 -77.5 -103t-187.5 -43v0zM680 484zM680 382q-25 0 -52 3q21 -28 27 -60q12 -1 25 -1q110 0 187.5 43t77.5 103v58q0 -60 -77.5 -103t-187.5 -43v0z
M680 382zM680 820q-109 0 -186.5 -43t-77.5 -103.5t77.5 -103.5t187 -43t187 43t77.5 103.5t-77.5 103.5t-187.5 43v0zM680 820zM342 447q-110 0 -187.5 -43t-77.5 -103.5t77.5 -103t187 -42.5t187 42.5t77.5 103t-77.5 103.5t-186.5 43v0zM342 447z" />
    <glyph glyph-name="correct" unicode="&#xe615;" horiz-adv-x="1025" 
d="M347.5 13q-26.5 0 -45.5 19l-283 283q-19 19 -19 45.5t18.5 45t45.5 19t45 -18.5l239 -238l567 566q19 19 45.5 19t45 -19t18.5 -45.5t-18 -44.5l-613 -612q-19 -19 -45.5 -19z" />
    <glyph glyph-name="dingdan1" unicode="&#xe609;" 
d="M818 -101h-576q-48 0 -82 34t-34 81v742q0 48 34 82t82 34h447l245 -234v-624q0 -47 -34 -81t-82 -34zM242 826q-29 0 -49.5 -20.5t-20.5 -49.5v-742q0 -28 20.5 -48.5t49.5 -20.5h576q29 0 49 20.5t20 48.5v604l-216 208h-429v0zM347 663h366q10 0 16.5 -7t6.5 -16.5
t-6.5 -16.5t-16.5 -7h-366q-10 0 -16.5 7t-6.5 16.5t6.5 16.5t16.5 7zM347 483h366q10 0 16.5 -6.5t6.5 -16.5t-6.5 -16.5t-16.5 -6.5h-366q-10 0 -16.5 6.5t-6.5 16.5t6.5 16.5t16.5 6.5zM347 304h366q10 0 16.5 -7t6.5 -16.5t-6.5 -16.5t-16.5 -7h-366q-10 0 -16.5 7
t-6.5 16.5t6.5 16.5t16.5 7zM347 124h366q10 0 16.5 -7t6.5 -16.5t-6.5 -16.5t-16.5 -7h-366q-10 0 -16.5 7t-6.5 16.5t6.5 16.5t16.5 7z" />
    <glyph glyph-name="add-one" unicode="&#xe610;" 
d="M535 407v256h-46v-256h-256v-46h256v-256h46v256h256v46h-256zM512 -128q-139 0 -257 68.5t-186.5 186.5t-68.5 257t68.5 257t186.5 186.5t257 68.5t257 -68.5t186.5 -186.5t68.5 -257t-68.5 -257t-186.5 -186.5t-257 -68.5zM512 -81q95 0 181 36.5t148.5 99t99 148.5
t36.5 181t-36.5 181t-99 148.5t-148.5 99t-181 36.5t-181 -36.5t-148.5 -99t-99 -148.5t-36.5 -181t36.5 -181t99 -148.5t148.5 -99t181 -36.5z" />
    <glyph glyph-name="nowifi" unicode="&#xe63a;" 
d="M631 400q-52 37 -117 37q-66 0 -119 -38t-75 -100q-4 -12 1.5 -23.5t17.5 -15.5q5 -2 10 -2q22 0 29 21q15 43 52.5 69.5t83.5 26.5q45 0 82 -26q36 -25 52 -66q4 -12 16 -17t23.5 -0.5t17 16t0.5 23.5q-22 58 -74 95zM704 559q-88 52 -190 52q-104 0 -192 -53
q-86 -50 -136 -137q-7 -11 -3.5 -23t14.5 -19q7 -4 15 -4q18 0 27 16q42 72 114 115q74 43 161 43q86 0 159 -43q72 -41 114 -113q7 -11 19 -14t23 3.5t14.5 19t-3.5 23.5q-50 85 -136 134zM972 540q-77 114 -198.5 179t-259.5 65q-143 0 -267 -69q-120 -66 -195 -181
q-7 -11 -4.5 -23t12.5 -19q8 -5 17 -5q17 0 26 13q68 105 177 163.5t234 58.5q122 0 230.5 -57.5t176.5 -158.5q7 -11 19.5 -13.5t23.5 4.5t13 19.5t-5 23.5zM626 217q-9 9 -21.5 9t-21.5 -9l-68 -68l-69 68q-9 9 -21.5 9t-21.5 -9t-9 -21.5t9 -21.5l68 -69l-68 -68
q-9 -9 -9 -22t9 -22t21.5 -9t21.5 9l69 69l68 -69q9 -9 21.5 -9t21.5 9t9 22t-9 22l-68 68l68 69q9 9 9 21.5t-9 21.5z" />
    <glyph glyph-name="voice" unicode="&#xe68d;" horiz-adv-x="1025" 
d="M512 896q-104 0 -198.5 -40.5t-163.5 -109.5t-109.5 -163.5t-40.5 -198.5t40.5 -198.5t109.5 -163.5t163.5 -109.5t198.5 -40.5t198.5 40.5t163.5 109.5t109.5 163.5t40.5 198.5t-40.5 198.5t-109.5 163.5t-163.5 109.5t-198.5 40.5v0zM512 -91q-96 0 -184 37.5
t-152 101.5t-101.5 152t-37.5 184t37.5 184t101.5 152t152 101.5t184 37.5t184 -37.5t152 -101.5t101.5 -152t37.5 -184t-37.5 -184t-101.5 -152t-152 -101.5t-184 -37.5v0zM408 477l-92 -93l94 -93q37 38 36.5 93t-38.5 93v0v0zM501 569v0l-46 -46q58 -58 58 -139t-58 -139
l46 -46q77 77 77 185t-77 185v0zM592 662l-45 -46q47 -47 71.5 -108t24.5 -123t-24.5 -123t-71.5 -108l45 -46q76 75 103 175.5t0 201.5t-103 177v0v0z" />
    <glyph glyph-name="expression" unicode="&#xe602;" 
d="M512 -128q-139 0 -257 68.5t-186.5 186.5t-68.5 257t68.5 257t186.5 186.5t257 68.5t257 -68.5t186.5 -186.5t68.5 -257t-69 -257t-187 -186.5t-256 -68.5zM512 851q-95 0 -181.5 -37t-149 -99.5t-99.5 -149t-37 -181.5t37 -181.5t99.5 -149t149 -99.5t181.5 -37
t181.5 37t149 99.5t99.5 149t37 181.5t-37 181.5t-100 149t-149.5 99.5t-180.5 37zM801 342q0 -121 -84.5 -205.5t-204.5 -84.5t-204.5 84.5t-84.5 205.5h578zM617 546.5q0 -23.5 17 -40.5t40.5 -17t40.5 17t17 40.5t-17 40.5t-40.5 17t-40.5 -17t-17 -40.5zM289 546.5
q0 -23.5 17 -40.5t41 -17t41 17t17 40.5t-17 40.5t-41 17t-41 -17t-17 -40.5z" />
    <glyph glyph-name="submit" unicode="&#xe6de;" 
d="M867 458h-2q-25 0 -25 -36v-348h-655v344q0 15 -8.5 25t-22.5 10h3q-14 0 -22 -10t-8 -25v-369q0 -14 10 -24t25 -10h701q14 0 24 10.5t10 24.5v372q0 15 -8 25.5t-22 10.5zM360 559l124 124v-397q0 -37 26 -37q15 0 23.5 10.5t8.5 26.5v395l132 -127q21 -21 41 0
q11 11 9 25.5t-14 25.5l-172 168q-12 12 -30 11q-13 -2 -22 -11v0l-172 -173q-11 -10 -11 -25.5t11 -26.5q18 -18 46 11z" />
    <glyph glyph-name="change-a" unicode="&#xe603;" 
d="M738 416l-210 301l47 -9l-220 -139q-11 -7 -24 -5t-21 12l-182 230q-9 11 -7.5 25t12.5 23t25 7.5t23 -12.5l183 -230l-46 7l220 139q12 8 25 5t21 -14l202 -289l13 152q1 14 12 23.5t25 8t23 -12t8 -24.5l-20 -230q-1 -13 -10 -22t-22 -9l-210 -13q-14 -1 -24.5 8.5
t-11.5 23.5t8.5 24.5t23.5 11.5zM909 83q0 -33 -14.5 -56t-33.5 -23h-668q-43 0 -73 30t-30 73v395q0 15 -10 25t-24 10t-24 -10t-10 -25v-395q0 -71 50 -121t121 -50h668q50 0 83.5 43.5t33.5 103.5v138q0 15 -10 24.5t-24.5 9.5t-24.5 -9.5t-10 -24.5v-138z" />
    <glyph glyph-name="sum-balance" unicode="&#xe636;" 
d="M512 896q-139 0 -257 -68.5t-186.5 -186.5t-68.5 -257t68.5 -257t186.5 -186.5t257 -68.5t257 68.5t186.5 186.5t68.5 257t-68.5 257t-186.5 186.5t-257 68.5v0zM681 320q17 0 29 -12t12 -29t-12 -29.5t-29 -12.5h-128v-106q0 -17 -12 -29t-29 -12t-29 12t-12 29v106
h-128q-17 0 -29 12.5t-12 29.5t12 29t29 12h128v61h-128q-17 0 -29 12t-12 29t12 29.5t29 12.5h92l-111 129q-11 13 -9.5 30t13.5 28v0q13 11 30.5 10t28.5 -14l125 -147l126 147q11 13 28 14t30 -10v0q13 -11 14 -28t-10 -30l-111 -129h92q17 0 29 -12.5t12 -29.5t-12 -29
t-29 -12h-128v-61h128v0zM681 320z" />
    <glyph glyph-name="safe" unicode="&#xe64d;" 
d="M492 -63q-7 0 -20 7q-5 3 -7 4q-95 50 -169 113q-43 38 -73 74q-52 69 -70 116q-1 2 -3 7q-13 34 -15 52v0q-6 57 -8 173q-1 24 -1 36v21q0 19 -1 29q0 24 1 73v45q1 25 16 39q2 1 4 3q7 6 10 8v0h1q10 6 31 16q13 7 19 10q70 34 186 60q65 9 102 10h7q104 0 191 -26
q19 -5 54 -19q17 -6 25 -10q27 -9 80 -36v0q2 -2 7 -4q13 -8 18 -13q14 -15 19 -38v-124v-94v-1q0 -12 -4 -19v-1q-7 -14 -23 -14h-1v0h-1q-10 0 -18 9q-7 9 -7 20v0v90v127v5l-3 2q-8 5 -25 13q-11 5 -17 9v0v0q-119 50 -187 60q-52 8 -98 8h-26q-19 -1 -58 -7h-5
q-13 -2 -38 -7q-3 -1 -5 -2q-94 -23 -152 -52h-1v0q-9 -5 -27 -14q-9 -4 -13 -7l-4 -2v-4q-2 -97 1 -240v0q0 -7 1 -24q2 -64 6 -97q0 -10 7 -27q1 -5 2 -7q15 -45 66 -111v0q56 -68 146 -127q35 -23 86 -50v0h1q4 -1 9 -1h5h4h1l2 1q74 32 161 100q22 17 33 29q7 6 20 20
q10 11 15 16v0v0q58 66 80 143q2 8 9 13.5t16 5.5q3 0 7 -1v0q17 -4 19 -24v0v0q1 -8 -4 -24l-2 -6q-26 -77 -83 -144q-10 -10 -28 -29q-5 -5 -9 -10q-5 -4 -12 -11q-5 -5 -8 -7q-30 -26 -47 -38v0q-9 -7 -29 -20q-17 -12 -25 -18q-4 -2 -9 -5q-50 -31 -77 -43q-2 -1 -7 -3
q-12 -6 -18 -6h-10h-20zM484 237q-7 0 -13 3q-4 2 -10 9q-4 5 -7 7q-21 24 -42 47q-65 72 -98 109v0v0q-10 10 -10 21v1v0q-1 11 5.5 20t15.5 11v0q3 1 6 1v0q11 0 19 -9l48 -54q54 -61 80 -90l5 -5l5 5q43 48 130 145q79 88 119 132q7 8 19 8q16 0 24 -13q5 -8 4 -19
t-7 -18q-64 -70 -127 -140q-96 -107 -146 -162v0q-8 -9 -20 -9z" />
    <glyph glyph-name="img-v" unicode="&#xe60a;" 
d="M64 383q0 -91 35 -174t95 -143t143 -95t174 -35t174 35t143 95t95.5 143t35.5 174t-35.5 174t-95.5 143t-143 95.5t-174 35.5t-174 -35.5t-143 -95.5t-95 -143t-35 -174zM258 614h213v-48h-24l95 -219l94 219h-47v48h189v-48h-71l-189 -414h-47l-166 414h-47v48z" />
    <glyph glyph-name="woman-img" unicode="&#xe605;" 
d="M512 896q-104 0 -199 -40.5t-163.5 -109t-109 -163.5t-40.5 -199t40.5 -199t109 -163.5t163.5 -109t199 -40.5t199 40.5t163.5 109t109 163.5t40.5 199v0q0 104 -40.5 199t-109 163.5t-163.5 109t-199 40.5v0v0zM512 -87h-1q-168 0 -296 109q2 1 16.5 6.5t22.5 8.5
q69 25 101.5 49.5t42.5 59.5q-42 9 -74 25t-48 30.5t-27 31t-13 23t-2 9.5v0q3 2 8 6.5t18.5 20t23.5 34.5t18.5 51t8.5 68q0 43 4 76t16 67t33.5 56t59 36t88.5 14t88.5 -14t59 -35.5t34 -55.5t16.5 -67t4 -76q0 -36 8 -68t19 -51.5t22.5 -34t19.5 -20.5l8 -6q0 -3 -2 -9
t-13 -22.5t-27 -31t-48.5 -30.5t-73.5 -25q10 -35 42.5 -60t101.5 -50q20 -7 39 -15q-128 -110 -298 -110v0v0z" />
    <glyph glyph-name="order" unicode="&#xe6c3;" 
d="M905 -128h-786q-42 0 -72 30t-30 72v785q0 43 30 73t72 30h103q14 0 24 -10t10 -24t-10 -24t-24 -10h-103v0q-14 0 -24 -10t-10 -25v-785q0 -14 10 -24t24 -10h786v0q14 0 24 10t10 24v785q0 15 -10 25t-24 10h-103q-14 0 -24 10t-10 24t10 24t24 10h103q42 0 72 -30
t30 -73v-785q0 -42 -30 -72t-72 -30zM631 828h-238q-15 0 -25 10t-10 24t10 24t25 10h238q15 0 25 -10t10 -24t-10 -24t-25 -10zM256 623h512q14 0 24 -10t10 -24t-10 -24t-24 -10h-512q-14 0 -24 10t-10 24t10 24t24 10zM256 213h512q14 0 24 -10t10 -24t-10 -24t-24 -10
h-512q-14 0 -24 10t-10 24t10 24t24 10zM256 418h512q14 0 24 -10t10 -24t-10 -24t-24 -10h-512q-14 0 -24 10t-10 24t10 24t24 10z" />
    <glyph glyph-name="wallet" unicode="&#xe66b;" horiz-adv-x="1120" 
d="M1052 26q0 -20 -7 -38q-7 -17 -20 -30.5t-30.5 -21t-37.5 -7.5h-787q-20 0 -38.5 7.5t-33 21t-22.5 31t-8 37.5v531q0 41 29 69t70 28h787q41 0 69.5 -28t28.5 -69v-145h-246q-41 0 -69.5 -27.5t-28.5 -67.5q1 -28 12 -49q8 -19 28 -33.5t58 -14.5h246v-194v0zM905 703
h-492q58 30 110 58q45 22 90 46q35 19 70 37q38 20 67.5 18.5t50.5 -10.5q24 -12 41 -31zM757 316.5q0 20.5 14.5 34t35 13.5t34.5 -13.5t14 -34t-14 -34.5t-34.5 -14t-35 14t-14.5 34.5z" />
    <glyph glyph-name="service" unicode="&#xe677;" 
d="M847 425q-11 0 -18.5 -7.5t-7.5 -20.5v-244q0 -10 8 -17.5t18 -7.5h75q10 0 17.5 7.5t7.5 17.5v246q0 10 -6 17l-1 1q-8 8 -18 8h-75zM576 54q-2 1 -3 2q-14 7 -30 3t-25 -19q-5 -9 -5 -20v-2q0 -5 1 -10q4 -15 18 -24q1 0 3 -2q14 -7 30 -3t24 18q1 1 2 3q7 14 3 30
t-18 24zM600 99q34 -19 44 -56t-10 -70v0v0q-19 -33 -56 -43t-70 9h-1q-32 19 -42 55h-164h-3q-48 1 -101.5 15t-94.5 40q-80 52 -80 133v214q0 32 22.5 54.5t54.5 22.5h11q12 146 116 250q56 56 130 87t156 31t156 -31t130 -87q104 -104 117 -250h5q31 0 54 -22q1 -1 1 -2
q22 -23 22 -52v-241q0 -32 -23 -54v0q-23 -23 -54 -23h-70q-32 0 -55 23v-1q-22 23 -22 55v241q0 31 22.5 53.5t54.5 22.5h16q-6 62 -34 119t-70 100q-49 49 -113.5 76t-136.5 27t-136.5 -27t-113.5 -76q-42 -43 -70 -100t-34 -119h10q32 0 55 -22q1 -1 1 -2q21 -22 21 -52
v-218q0 -10 -7.5 -17.5t-17.5 -7.5q-11 0 -17 7t-6 18v218q0 9 -7 17h-1q-8 8 -18 8h-75q-11 0 -18.5 -7.5t-7.5 -17.5v-215q0 -53 57 -89q35 -23 82.5 -35t89.5 -13h2h164q3 10 9 20q19 34 56 44q37 9 70 -10v0z" />
    <glyph glyph-name="complete" unicode="&#xe61c;" 
d="M512 896q-138 0 -256 -69t-187 -187t-69 -256t69 -256t187 -187t256 -69t256 69t187 187t69 256t-69 256t-187 187t-256 69zM806 506l-352 -340q-6 -6 -19 -6t-19 6l-186 186q-9 10 -9 22.5t9.5 22t22.5 9.5t22 -9l167 -167l332 320q10 10 23 10t22 -10q0 -38 -13 -44z
" />
    <glyph glyph-name="publish" unicode="&#xe629;" 
d="M488 314l531 531l-45 45l-531 -531zM950 -92l32 32h-918l32 -32v939l-32 -32h503v64h-535v-1003h982v604h-64v-572z" />
    <glyph glyph-name="error" unicode="&#xe61e;" 
d="M512 872q-202 0 -345 -143t-143 -345t143 -345t345 -143t345 143t143 345t-143 345t-345 143zM749 192l-45 -45l-181 181l-181 -181l-46 45l181 181l-181 181l46 46l181 -181l181 181l45 -46l-181 -181z" />
    <glyph glyph-name="notification" unicode="&#xe607;" 
d="M835 145l-62 109v228q0 73 -48 141q-50 68 -126 97h-1q-5 2 -12 4v7q0 31 -21.5 53t-52.5 22t-53 -22t-22 -53v-7q-6 -1 -9 -3h-1q-78 -28 -128 -97q-50 -68 -50 -142v-228l-66 -116q-13 -23 0 -45.5t40 -22.5h163q7 -46 43 -77t83 -31t83 31t43 77h163q19 0 32.5 13
t13.5 32q0 18 -12 30v0zM512 767q14 0 24.5 -10t11.5 -24q-7 1 -13 2q-2 1 -5 0q-1 0 -2 1q-10 1 -16.5 1t-16.5 -1q-1 0 -1.5 -0.5l-0.5 -0.5q-3 1 -6 0q-5 0 -11 -1q1 14 11.5 23.5t24.5 9.5zM512 1q-31 0 -55 19.5t-31 49.5h172q-7 -30 -31 -49.5t-55 -19.5zM801 109
h-578q-4 0 -6 3t0 6l69 121q2 5 2 10v233q0 63 43.5 121t108.5 81q24 8 48 12h4q3 0 8 1q8 1 11.5 1t10.5 -1q6 -1 9 -1h4q24 -4 51 -13q63 -24 105.5 -81.5t42.5 -119.5v-233q0 -5 3 -10l66 -115q1 -2 3 -4t2 -5q0 -6 -7 -6z" />
    <glyph glyph-name="man-lin" unicode="&#xe60d;" 
d="M513.5 862q97.5 0 186 -38t152.5 -102t102 -153t38 -186.5t-38 -186t-102 -152.5t-152.5 -102t-186 -38t-186.5 38t-153 102t-102 152.5t-38 186t38 186.5t102 153t153 102t186.5 38zM728 614h-132q-7 0 -12 -5t-5 -11.5t5 -11.5t12 -5h93l-109 -109q-50 43 -116 43
q-76 0 -129 -53t-53 -128.5t53 -128.5t128.5 -53t128.5 53t53 128q0 66 -41 116l107 108v-92q0 -6 5 -11t12 -5q6 0 11 5t5 11v133q0 6 -5 11t-11 5zM463.5 185q61.5 0 105 43.5t43.5 105t-43.5 105t-105 43.5t-105 -43.5t-43.5 -105t43.5 -105t105 -43.5z" />
    <glyph glyph-name="woman-lin" unicode="&#xe60e;" 
d="M512 862q97 0 185.5 -38t152.5 -102t102 -152.5t38 -185.5t-38 -185.5t-102 -152.5t-152.5 -102t-185.5 -38t-185.5 38t-152.5 102t-102 152.5t-38 185.5t38 185.5t102 152.5t152.5 102t185.5 38zM695 485q0 75 -53.5 128.5t-129 53.5t-129 -53.5t-53.5 -128.5
q0 -70 46.5 -121.5t115.5 -58.5v-43h-81q-8 0 -14 -6t-6 -14t6 -14t14 -6h81v-101q0 -9 6 -15t14.5 -6t14 6t5.5 15v101h81q9 0 15 6t6 14.5t-6 14t-15 5.5h-81v43q69 8 116 59t47 121zM371 484.5q0 -58.5 41.5 -100t99.5 -41.5q59 0 100.5 41.5t41.5 100t-41.5 100.5
t-100.5 42q-58 0 -99.5 -42t-41.5 -100.5z" />
    <glyph glyph-name="edit-b" unicode="&#xe62a;" 
d="M209 807q-50 0 -86.5 -36.5t-36.5 -86.5v-613q0 -51 36.5 -87t87.5 -36h612q51 0 87 35.5t36 86.5v416h-61v-416q0 -25 -18 -43t-44 -18h-612q-26 0 -44 18t-18 44v613q0 25 18 43t43 18h345v62v0h-345zM452 283v0q-12 0 -21 9t-9 21.5t9 21.5l433 434q9 9 22 9t22 -9
t9 -21.5t-9 -21.5l-434 -434q-9 -9 -22 -9v0z" />
    <glyph glyph-name="market-activity" unicode="&#xe616;" 
d="M775 193q20 -13 28 -32q74 -30 74 -63q0 -29 -57 -55t-144 -40.5t-176 -14.5q-88 0 -169 14.5t-132.5 40t-51.5 55.5q0 31 60 58q3 16 21 30q-72 -21 -113 -50t-41 -62q0 -40 59 -73.5t160 -53t221 -19.5t221 19.5t160 53t59 73.5q-2 38 -49.5 69t-129.5 50zM484 51
q5 -12 16 -16.5t21 0.5q12 5 17 16t0 21l-96 251q46 63 100 89q23 12 66 24t77.5 29t61.5 49q29 33 46.5 78t21.5 86t1.5 77.5t-13.5 58t-26 21.5q-21 0 -37.5 -16.5t-26.5 -37t-28 -39.5t-40 -23q-27 -5 -64 12t-79.5 37.5t-75.5 22.5q-68 6 -142 -56l-21 54q-5 12 -16 17
t-21 -1q-12 -5 -17 -16t0 -21l275 -717v0zM410 735q24 0 52 -11t51 -24.5t58.5 -25t73.5 -11.5q29 0 51 12t31.5 26t18.5 25t15 9q7 -1 -0.5 -40t-31.5 -89.5t-56 -74.5q-21 -17 -80 -33t-81 -26q-51 -25 -100 -69l-109 284q54 48 107 48z" />
    <glyph glyph-name="hint" unicode="&#xe6ec;" 
d="M513 768h-8q-105 0 -193.5 -51.5t-140 -140t-51.5 -193t51.5 -193t140 -140t193.5 -51.5h8q105 0 193.5 51.5t140 140t51.5 192.5v0q0 105 -51.5 193.5t-140 140t-193.5 51.5zM561 225q-3 -24 -24 -35t-43 -2q-21 9 -26 35q0 1 -0.5 4.5t-0.5 4.5q1 20 10 31q13 17 35 17
q2 0 4 -1q22 -1 34.5 -16t10.5 -38zM564 528q-1 -10 -5.5 -28t-5.5 -25q-8 -39 -12 -66q-2 -8 -8 -64q0 -2 -3 -29h-31v4q-1 2 -5 33.5t-6 47.5q-6 38 -14 75q-2 9 -6 25t-5 21q-2 9 -2 18v1q4 37 38 45q9 1 18 1h4q32 -3 42 -31q4 -12 1 -28z" />
    <glyph glyph-name="data-a" unicode="&#xe66c;" 
d="M981 -19h-938v0q-18 0 -30.5 12.5t-12.5 30.5v0v705v0q0 17 12.5 29.5t30.5 12.5v0v0q17 0 29.5 -12.5t12.5 -29.5v0v-662h896v0q18 0 30.5 -12.5t12.5 -30.5v0v0q0 -18 -12.5 -30.5t-30.5 -12.5v0zM961 479l-229 -229q-12 -13 -29 -13t-30 13l-4 7l-200 199l-206 -206
q-12 -13 -29.5 -13t-29.5 12.5t-12 30t12 29.5l232 232l1 1.5t2 2.5q12 12 30 12t30 -12l0.5 -1l0.5 -1l204 -204l201 202q1 0 1.5 1.5t1.5 2.5q13 12 30.5 12t30 -12.5t12.5 -30t-12 -30.5q-4 -3 -8 -5z" />
    <glyph glyph-name="loginout-a" unicode="&#xe892;" 
d="M952 -33q0 -10 -7 -16.5t-16 -6.5v0h-834q-10 0 -16.5 6.5t-6.5 16.5v834q0 10 6.5 16.5t16.5 6.5h834q10 0 16.5 -6.5t6.5 -16.5v-184h52v184q0 31 -22 53t-53 22v0h-834q-31 0 -53 -22t-22 -53v-834q0 -31 22 -53t53 -22h834v0q31 0 53 22t22 53v184h-52v-184zM924 358
l-160 -160q-7 -7 -7 -18t7.5 -18.5t18.5 -7.5t18 8l201 201q8 7 8 17v1q-1 10 -8 18l-205 204q-7 8 -18 8t-18 -7.5t-7 -17.5q0 -11 7 -19l158 -157h-459v-52h464z" />
    <glyph glyph-name="heart" unicode="&#xe682;" 
d="M559 -40zM803 636q-26 26 -70.5 44.5t-81.5 18.5v0h-1q-31 0 -70.5 -13.5t-63.5 -33.5l-7 -5l-20 14l-1 1q-23 15 -58.5 26t-63.5 11q-29 0 -58 -8l-9 -2q-20 -7 -45 -22.5t-41 -30.5q-26 -26 -44.5 -70.5t-18.5 -81.5v-1q0 -89 63 -152l285 -285q4 -4 10 -4t11 4
l284 285q63 63 63 152.5t-63 152.5zM508 86l-265 266q-22 22 -37.5 59t-15.5 68v1q0 75 53 128q21 22 58.5 37.5t67.5 15.5h1q31 0 58.5 -9t35 -14.5t12.5 -9.5l6 -3l-136 -136q-5 -5 -5.5 -12.5t5.5 -14.5q5 -4 10.5 -5t9 -0.5t4.5 1.5l148 150q22 22 59.5 37.5t68.5 15.5
v0q75 0 128 -53t53 -128t-53 -128zM508 40q-7 0 -11 5l-285 284q-64 64 -64 154q0 44 16.5 84t47.5 70q37 37 87 53l9 3q28 8 58 8q68 0 123 -38h1l19 -14l6 5q59 47 135 47h1v0q43 0 83 -16q40 -17 71 -48q63 -63 63 -153.5t-63 -154.5l-285 -284q-5 -5 -12 -5zM366 697
q-29 0 -57 -7l-9 -3q-49 -16 -85 -52q-63 -63 -63 -152q0 -88 63 -151l284 -284q4 -4 9.5 -4t8.5 4l285 284q62 63 62 151.5t-62 151.5v0q-63 62 -151 62h-1q-75 0 -133 -46l-8 -7l-21 15l-1 1q-54 37 -121 37zM508 83l-267 268q-54 53 -53 129q0 76 53 129q53 54 129 54
q31 0 57.5 -8.5t35.5 -14.5t14 -11l8 -4l-137 -137q-6 -5 -5 -14q0 -6 5 -11q4 -4 9 -4.5t7.5 0t3.5 1.5l149 149q53 54 129 54t129.5 -53.5t53.5 -129.5t-53 -129zM369 659q-73 0 -125 -53q-52 -52 -52 -126q-1 -74 52 -127l264 -264l265 264q52 53 52 127t-52.5 126.5
t-126.5 52.5v0q-74 0 -126 -53l-149 -149q-2 -3 -9.5 -3t-16.5 6q-6 6 -6 14q-1 10 6 17l133 133l-3 2q-5 5 -13.5 10.5t-35 14t-56.5 8.5h-1z" />
    <glyph glyph-name="heart-b" unicode="&#xe617;" horiz-adv-x="1292" 
d="M554 -128q-28 0 -47 20l-403 403q-103 103 -103 249t103 249q60 60 140 86q78 25 158 13q13 -1 20.5 -11t5.5 -22.5t-12 -20t-22 -5.5q-67 9 -132 -11q-66 -22 -116 -72q-85 -85 -85 -206t85 -207l403 -403q2 -2 5 -2t5 2l403 403q86 86 86 207t-85.5 206.5t-206.5 85.5
t-207 -86l-225 -224q-9 -9 -21 -9t-21 8.5t-9 21t9 21.5l225 225q103 103 249 103t249 -103q67 -68 91 -158.5t0 -181.5t-91 -158l-403 -403q-20 -20 -48 -20z" />
    <glyph glyph-name="rocket" unicode="&#xe62d;" 
d="M761 456q1 58 -12.5 113t-31.5 94t-48 77t-50 59t-50 44t-36.5 26.5t-20.5 12.5q-7 -4 -19 -11t-37 -26.5t-49 -42.5t-51.5 -59.5t-47.5 -77t-33 -95.5t-12 -114q-99 -68 -90 -180q5 -64 54.5 -111t82.5 -44q33 4 25 29l11 50q54 -79 69 -79h194q8 0 25.5 20t30.5 39
t13 20l11 -50q-1 -1 -1.5 -3t-0.5 -6.5t2 -8t8.5 -7t16.5 -4.5q33 -3 82.5 44t54.5 111q9 112 -90 180zM512 460q-5 0 -13 1t-23.5 7t-28.5 16t-25 31t-15 49q1 28 11.5 48.5t25.5 31t28.5 17t26.5 9l13 2.5q4 0 13.5 -1.5t25.5 -8.5t29.5 -17.5t24.5 -31.5t12 -49
q-3 -28 -15 -49t-25 -31t-28.5 -16t-23.5 -7t-13 -1zM512 460zM458 -34q0 -8 -7 -15t-15 -7t-14.5 7t-6.5 15v104q0 8 6.5 15t14.5 7t15 -7t7 -15v-104zM458 -34zM537 -88q0 -8 -6.5 -15t-15 -7t-15 7t-6.5 15v155q0 8 6.5 14.5t15 6.5t15 -6.5t6.5 -14.5v-155zM537 -88z
M609 -9q0 -8 -6.5 -15t-14.5 -7t-15 7t-7 15v76q0 8 7 14.5t15 6.5t14.5 -6.5t6.5 -14.5v-76zM609 -9z" />
    <glyph glyph-name="confirm-a" unicode="&#xe697;" 
d="M857.5 38.5q70.5 70.5 107.5 162.5t37 185t-37 185t-107.5 162.5t-162.5 107.5t-185 37t-185 -37t-162.5 -107.5t-107.5 -162.5t-37 -185t37 -185t107.5 -162.5t162.5 -107.5t185 -37t185 37t162.5 107.5zM220 444l58 58l261 -261l-58 -58l-261 261v0zM742 560l58 -58
l-261 -261l-58 58z" />
    <glyph glyph-name="OA-a" unicode="&#xe628;" horiz-adv-x="1061" 
d="M1023 -13h-303q-26 0 -40.5 5.5t-14.5 24.5v147h261q13 0 22 14t9 33.5t-9 33.5t-22 14h-261v78h261q13 0 22 14t9 34t-9 33.5t-22 13.5h-261v97h261q13 0 22 14t9 33.5t-9 33.5t-22 14h-261v127q0 21 14.5 35.5t35.5 14.5h296v0q20 0 35 -14.5t15 -35.5v-734
q0 -19 -8 -24.5t-30 -5.5v0zM544 -126l-493 101q-20 5 -34 22.5t-15 37.5l-2 709q0 20 14.5 37.5t34.5 21.5l495 92q22 4 42 -7t20 -30v-948q0 -19 -20 -30t-42 -7v1zM255 452q-12 17 -35 28.5t-44 11.5h-3.5h-3.5q-21 0 -44 -11.5t-35 -28.5q-11 -16 -18.5 -40.5
t-7.5 -43.5v-6v-5q0 -20 7.5 -44.5t18.5 -40.5q12 -17 35 -28.5t44 -11.5h3.5h3.5q21 0 44 11.5t35 28.5q11 16 19 40.5t8 44.5q0 2 -1 5q1 3 1 6q0 19 -8 44t-19 40v0zM477 369h-3v1h2l-50 120h-35l-105 -255h40l28 70h110l28 -70h40l-55 133v1zM409 438l40 -98h-80l40 98
v0zM173 268h-2q-15 0 -30 8.5t-22 21.5q-18 28 -18 60q0 2 1 4q-1 2 -1 5q0 32 17 59q7 13 22.5 21.5t29.5 8.5h2.5h2.5q14 0 29.5 -8.5t22.5 -21.5q16 -27 16 -59v-5v-4q0 -33 -16 -61q-8 -12 -23 -21t-30 -9h-1v1z" />
    <glyph glyph-name="capacity" unicode="&#xe74b;" 
d="M526 187v0h-17q-160 3 -273 53q-57 26 -87.5 59.5t-30.5 70.5q1 37 31 68.5t86 54.5q109 46 263 46q8 0 17 -1q160 -3 273 -53q57 -25 87.5 -59t30.5 -71q-1 -36 -31 -67.5t-86 -55.5q-109 -45 -263 -45zM498 505q-148 0 -250 -42q-45 -19 -70.5 -43.5t-26.5 -49.5
q0 -26 25.5 -52t73.5 -47q106 -47 259 -50q7 -1 17 -1v0q148 0 250 43q46 19 71 43.5t26 49.5q0 26 -25.5 52t-73.5 47q-106 47 -259 50h-17zM677 20q-67 0 -154 69q-85 68 -157 177q-88 133 -111 254q-24 129 40 171q22 15 52 15q67 0 154 -69q85 -68 157 -177
q88 -133 111 -255q24 -128 -40 -171q-22 -14 -52 -14zM347 673q-20 0 -34 -9q-46 -30 -26 -137q22 -115 106 -243q70 -105 151 -170q78 -61 133 -61q20 0 34 9q46 30 26 137q-22 115 -106 242q-70 105 -151 170q-78 62 -133 62zM366 7q-24 0 -44 11q-67 37 -54 167
q13 123 90 262q41 74 91 134t100 96q6 4 13 3t11 -7t2.5 -12.5t-6.5 -10.5q-100 -70 -182 -218q-73 -134 -86 -250q-11 -109 37 -135t134 41q91 72 165 206q81 148 87 270q0 7 5.5 11.5t12 4.5t11.5 -5.5t4 -11.5q-6 -130 -91 -285q-77 -140 -174 -216q-69 -55 -126 -55z
M685 678zM602 677.5q0 -34.5 24.5 -59t59 -24.5t59 24.5t24.5 59t-24.5 59t-59 24.5t-59 -24.5t-24.5 -59z" />
    <glyph glyph-name="loading" unicode="&#xe66a;" 
d="M511 896q21 0 35.5 -14.5t14.5 -35.5v-155q0 -21 -14.5 -35.5t-35.5 -14.5t-35.5 14.5t-14.5 35.5v155q0 20 14.5 35t35.5 15zM776 820q18 -10 23.5 -30.5t-4.5 -38.5l-78 -134q-10 -18 -30 -23.5t-38 5t-23.5 30.5t4.5 38l78 134q10 18 30 23.5t38 -4.5zM944 636
q10 -18 5 -38.5t-23 -30.5l-135 -78q-18 -10 -38 -4.5t-30.5 23.5t-5 38t23.5 31l134 77q18 10 38.5 5t30.5 -23zM1021 395q0 -21 -14.5 -36t-35.5 -15h-155q-21 0 -35.5 15t-14.5 36t15 35.5t35 14.5h155q21 0 35.5 -14.5t14.5 -35.5zM944 134q-10 -18 -30.5 -23.5
t-38.5 5.5l-134 77q-18 11 -23.5 31t5 38t30.5 23.5t38 -4.5l135 -78q18 -10 23 -30.5t-5 -38.5zM776 -69.5q-18 -10.5 -38 -5t-30 23.5l-78 134q-10 18 -5 38t23.5 30.5t38.5 5t30 -23.5l78 -134q10 -18 4.5 -38t-23.5 -30.5zM511 -126q-21 0 -35.5 14.5t-14.5 35.5v155
q0 21 14.5 35.5t35.5 14.5t35.5 -14.5t14.5 -35.5v-155q0 -21 -14.5 -35.5t-35.5 -14.5zM246 -69.5q-18 10.5 -23.5 30.5t4.5 38l78 134q10 18 30.5 23.5t38.5 -5t23 -30.5t-5 -38l-77 -134q-11 -18 -31 -23.5t-38 5zM58 134q-10 18 -5 38.5t24 30.5l134 78q18 10 38 4.5
t30.5 -23.5t5 -38t-23.5 -31l-134 -77q-18 -11 -38.5 -5.5t-30.5 23.5zM1 395q0 21 14.5 35.5t35.5 14.5h155q21 0 35.5 -14.5t14.5 -35.5t-14.5 -36t-35.5 -15h-155q-21 0 -35.5 15t-14.5 36v0zM58 635.5q10 18.5 30.5 23.5t38.5 -5l134 -77q18 -11 23.5 -31t-5 -38
t-30.5 -23.5t-38 4.5l-134 78q-19 10 -24 30t5 38.5zM246 819.5q18 10.5 38 5.5t31 -24l77 -134q10 -18 5 -38t-23 -30.5t-38.5 -5t-30.5 23.5l-78 134q-10 18 -4.5 38t23.5 30.5z" />
    <glyph glyph-name="man-img" unicode="&#xe60f;" 
d="M512 896q-104 0 -199 -40.5t-163.5 -109t-109 -163.5t-40.5 -199t40.5 -199t109 -163.5t163.5 -109t199 -40.5t199 40.5t163.5 109t109 163.5t40.5 199v0q0 104 -40.5 199t-109 163.5t-163.5 109t-199 40.5v0v0zM512 -78q-149 1 -269 88q89 32 119.5 66t30.5 96
q0 20 -7.5 31.5t-19 32t-17.5 58.5q-2 10 -7 15t-11 7t-12 7t-10.5 19.5t-6.5 38.5q0 15 4.5 25.5t8.5 13.5l5 3q-4 24 -8 52q-6 33 -6 59t7 56.5t29.5 54t59.5 38.5q48 20 91.5 20.5t66.5 -9t31 -21.5h3h3q49 0 83 -36q21 -24 27 -72.5t3.5 -82t-7.5 -60.5q18 -9 18 -42
q-1 -24 -6 -38t-11 -19t-12 -7.5t-11 -7.5t-6 -15q-7 -38 -18.5 -58.5t-19 -32t-7.5 -31.5q0 -62 30.5 -96t117.5 -67q-118 -85 -266 -86v0z" />
    <glyph glyph-name="choice-g" unicode="&#xe7ad;" 
d="M512 896q-139 0 -257 -68.5t-186.5 -186.5t-68.5 -257t68.5 -257t186.5 -186.5t257 -68.5t257 68.5t186.5 186.5t68.5 257t-68.5 257t-186.5 186.5t-257 68.5zM496 219v0l-66 -65l-66 65v0l-165 165l66 66l165 -165l329 329l66 -65z" />
    <glyph glyph-name="confirm" unicode="&#xe68b;" 
d="M512 896q-139 0 -257 -68.5t-186.5 -186.5t-68.5 -257t68.5 -257t186.5 -186.5t257 -68.5t257 68.5t186.5 186.5t68.5 257t-68.5 257t-186.5 186.5t-257 68.5zM806 517l-331 -331q-14 -14 -33 -14t-33 14l-190 190q-12 13 -12 31q0 20 13.5 33.5t32.5 13.5q18 0 31 -12
l158 -158l298 298q14 15 34 15q19 0 33 -13.5t14 -32.5q0 -20 -15 -34z" />
    <glyph glyph-name="personcard" unicode="&#xe62b;" 
d="M509.5 887q-102.5 0 -196 -40t-161 -107.5t-107.5 -161t-40 -196t40 -196t107.5 -161t161 -107.5t196 -40t196 40t161 107.5t107.5 161t40 196t-40 196t-107.5 161t-161 107.5t-196 40zM224 59q13 107 94.5 179.5t191 72.5t191 -72.5t95.5 -179.5q-123 -109 -286.5 -109
t-285.5 109zM365 527q0 60 42.5 102t102 42t102 -42t42.5 -102t-42.5 -102t-102 -42t-102 42t-42.5 102zM856 123q-24 80 -80 141.5t-133 92.5q39 30 61 74.5t22 95.5q0 89 -63.5 152.5t-153 63.5t-153 -63.5t-63.5 -152.5q0 -51 22 -95.5t61 -74.5q-77 -31 -133 -92.5
t-79 -141.5q-87 116 -87 260q0 117 58 216.5t157.5 157.5t217 58t217 -58t157.5 -157.5t58 -216.5q0 -144 -86 -260z" />
    <glyph glyph-name="seo" unicode="&#xe62c;" 
d="M4 790h74v-913h-74v913zM53 -49h962v-74h-962v74zM472 127h-296v74h248l98 222h176l162 277l64 -37l-184 -314h-170z" />
    <glyph glyph-name="internet-o" unicode="&#xe630;" 
d="M509 887q-102 0 -195.5 -40t-160.5 -107t-107 -160t-40 -195.5t40 -195.5t107 -160.5t160.5 -107t195.5 -39.5t195 39.5t160.5 107t107 160.5t39.5 195.5t-39.5 195.5t-107 160t-160.5 107t-195 40zM745 408h-212v213q96 -3 189 -24q21 -92 23 -189zM533 360h212
q-2 -98 -24 -192q-92 -20 -188 -22v214zM964 408h-168q-2 89 -20 175q90 -26 170 -70q15 -51 18 -105zM919 583q-74 34 -156 56q-21 81 -56 156q69 -34 124 -88.5t88 -123.5zM638 822q43 -80 69 -170q-85 17 -174 19v168v1q53 -3 105 -18zM485 840v-1v-168q-91 -2 -179 -20
q24 89 65 168q55 18 114 21zM305 792q-32 -73 -52 -153q-81 -22 -155 -56q33 68 86.5 121.5t120.5 87.5zM72 513q79 43 168 70q-16 -86 -18 -175h-168q2 54 18 105zM54 360h168q2 -91 19 -179q-88 25 -167 65q-17 56 -20 114zM101 181q73 -32 152 -52q20 -80 52 -152
q-136 68 -204 204zM485 -71q-59 3 -114 21q-41 79 -65 167q88 -17 179 -19v-169v0v0zM485 146q-98 2 -192 23q-21 93 -23 191h215v-214zM270 408q2 96 22 188q94 22 193 25v-213h-215zM533 -71v169q89 1 174 18q-26 -89 -69 -169q-51 -15 -105 -18zM707 -26q34 74 56 154
q80 20 154 53q-34 -68 -88 -121t-122 -86zM943 246q-79 -40 -168 -65q19 88 21 179h168q-3 -58 -21 -114z" />
    <glyph glyph-name="product-o" unicode="&#xe631;" 
d="M503 450q-34 0 -59 12l-318 156q-34 17 -34 48q0 30 34 48l322 163q26 14 62 14q33 0 58 -13l318 -156q34 -17 34 -47q1 -31 -34 -49l-322 -163q-26 -13 -61 -13zM150 666l318 -156q14 -7 35 -7q22 0 37 7l322 164v0l-318 157q-13 6 -34 6q-23 0 -38 -7l-321 -163z
M437 -125q-17 0 -35 9v0l-285 149q-25 13 -42 37t-17 47v402q0 21 14 35t35 14q16 0 34 -9h1l284 -149q26 -13 43 -37t17 -47v-402q0 -21 -14 -35t-35 -14zM426 -69q4 -1 7 -2v397q0 7 -9 18.5t-22 17.5v0l-285 150l-6 2v-397q0 -7 8.5 -18.5t21.5 -17.5l1 -1zM589 -125v0
q-21 0 -35 14t-14 35v402q0 23 17 47t43 37l285 149q18 9 34 9q21 0 35 -14t14 -35v-402q0 -23 -17 -47t-42 -37l-285 -149q-18 -9 -35 -9zM909 512l-285 -150q-13 -6 -22 -17.5t-9 -18.5v-397q4 1 7 2l285 150q13 6 21.5 17.5t8.5 18.5v397z" />
    <glyph glyph-name="content-o" unicode="&#xe632;" 
d="M874 67h-718q-59 0 -101.5 41t-42.5 99v479q0 59 42.5 100t101.5 41h718q60 0 102 -41t42 -100v-479q0 -58 -42.5 -99t-101.5 -41zM958 686q0 30 -27 56t-57 26h-718q-30 0 -57 -26t-27 -56v-479q0 -29 27 -55.5t57 -26.5h718q30 0 57 26.5t27 55.5v479v0zM806 268h-582
q-15 0 -25.5 8.5t-10.5 20.5t10.5 20.5t25.5 8.5h582q15 0 25.5 -8.5t10.5 -20.5t-10.5 -20.5t-25.5 -8.5zM806 411h-582q-15 0 -25.5 8.5t-10.5 20.5t10.5 20.5t25.5 8.5h582q15 0 25.5 -8.5t10.5 -20.5t-10.5 -20.5t-25.5 -8.5zM806 584h-582q-15 0 -25.5 8.5t-10.5 20.5
t10.5 20.5t25.5 8.5h582q15 0 25.5 -8.5t10.5 -20.5t-10.5 -20.5t-25.5 -8.5zM91 -6h340q15 0 25.5 -8.5t10.5 -20.5t-10.5 -20.5t-25.5 -8.5h-340q-15 0 -25.5 8.5t-10.5 20.5t10.5 20.5t25.5 8.5zM594 -6h339q15 0 26 -8.5t11 -20.5t-11 -20.5t-26 -8.5h-339
q-15 0 -25.5 8.5t-10.5 20.5t10.5 20.5t25.5 8.5z" />
    <glyph glyph-name="personcenter" unicode="&#xe62e;" horiz-adv-x="1026" 
d="M364 301q-6 5 -15.5 13.5t-30 32.5t-29.5 46q-5 2 -12 5.5t-20.5 18t-17.5 31.5q-10 54 -5 92q4 41 32 57q-1 94 0 111q7 92 58 132q23 18 53.5 23t42.5 2l7.5 5t17 7.5t23.5 3.5l69 15q19 0 30 -5q22 -10 54 -44q58 5 88 -15q43 -28 47 -108q4 -76 3 -102l-2 -26
q16 -9 24 -28q15 -33 10 -84v-5q-1 -17 -4 -26t-17 -25t-41 -31q-23 -55 -68 -96l-2 -42q1 -4 0 -10t-1 -11t2 -9q14 -25 42 -33l55.5 -10.5t105 -27.5t74.5 -40q22 -19 26.5 -23t17.5 -19t15.5 -23t9.5 -26.5t10 -39.5t6 -54h-62q-4 63 -21 100q-24 40 -93 65
q-30 14 -73 21q-3 0 -8 1q-25 4 -41 7.5t-41 11t-43 20.5t-27 30q-12 25 -15.5 40t-1 32t2.5 22l1 47q32 24 51 53q9 12 15.5 26t9.5 22l2 8l48 30q4 3 4 22q0 33 -4 47q-2 1 -6.5 2t-13 8.5t-11.5 18.5q-1 1 -1 3.5t-0.5 9t0.5 10.5q5 19 4 48q-4 89 -6 102q-6 38 -22 43
q-12 3 -18 3q-12 1 -21 0q-10 -2 -27 1q-10 2 -21 11q-16 15 -23 23q-9 10 -18 13l-68 -14q-9 0 -12 -1q-2 -1 -5 -3q-11 -9 -21 -12q-17 -4 -29 0q-22 -3 -29 -4q-12 -3 -24 -16q-23 -26 -25 -72q-1 -22 -1.5 -58t-0.5 -43q1 -14 1 -15q3 -18 -2 -30q-9 -19 -30 -26
q0 -2 -0.5 -5.5t-1 -15t0.5 -19.5q2 -37 5 -43q9 -6 20 -10l17 -7q6 -22 22 -46q27 -38 67 -58l2 -84q-1 -2 0 -12t-4 -28t-17 -30q-46 -46 -116 -55q-96 -12 -142 -37q-51 -28 -71 -57q-8 -18 -11 -50l-3 -50h-62q4 78 11 98q4 14 7 20.5t13 21t26 28.5q41 38 95 58
q34 13 94 22q73 12 96 27q16 11 19.5 17.5t2.5 20.5q0 8 -0.5 21.5t-0.5 23.5zM0 -63h1022v-65h-1022v65v0z" />
    <glyph glyph-name="companycard" unicode="&#xe62f;" 
d="M990 -60h-34v478q0 57 -40 97t-97 40h-204v68q0 56 -40.5 96.5t-96.5 40.5h-273q-56 0 -96.5 -40t-40.5 -97v-683h-34q-14 0 -24 -9.5t-10 -24t10 -24.5t24 -10h956q14 0 24 10t10 24.5t-10 24t-24 9.5zM546 555v-615h-409v683q0 28 20 48t48 20h273q28 0 48 -20t20 -48
v-68zM888 -60h-273v547h204q29 0 49 -20t20 -49v-478zM444 555h-205q-14 0 -24 -10t-10 -24.5t10 -24t24 -9.5h205q14 0 24 9.5t10 24t-10 24.5t-24 10zM444 350h-205q-14 0 -24 -10t-10 -24t10 -24t24 -10h205q14 0 24 10t10 24t-10 24t-24 10zM444 145h-205q-14 0 -24 -10
t-10 -24t10 -24t24 -10h205q14 0 24 10t10 24t-10 24t-24 10zM785 350h-68q-14 0 -24 -10t-10 -24t10 -24t24 -10h68q15 0 24.5 10t9.5 24t-9.5 24t-24.5 10zM785 145h-68q-14 0 -24 -10t-10 -24t10 -24t24 -10h68q15 0 24.5 10t9.5 24t-9.5 24t-24.5 10z" />
    <glyph glyph-name="micromarketing" unicode="&#xe639;" horiz-adv-x="1027" 
d="M1024 741v-778q0 -38 -26.5 -64.5t-64.5 -26.5h-842q-38 0 -64.5 26.5t-26.5 64.5v842q0 38 26.5 64.5t64.5 26.5h560q11 0 19 -8t8 -19t-8 -19.5t-19 -8.5h-560q-15 0 -25.5 -10.5t-10.5 -25.5v-842q0 -15 10.5 -25.5t25.5 -10.5h842q15 0 25.5 10.5t10.5 25.5v778
q0 11 8.5 19t19.5 8t19 -8t8 -19zM229 0q-11 0 -19.5 8t-8.5 19v202q0 11 8.5 19t19.5 8t19 -8t8 -19v-202q0 -11 -8 -19t-19 -8zM411 0q-11 0 -19 8t-8 19v330q0 11 8 19t19 8t19.5 -8t8.5 -19v-330q0 -11 -8.5 -19t-19.5 -8zM594 0q-11 0 -19 8t-8 19v293q0 11 8 19t19 8
t19.5 -8t8.5 -19v-293q0 -11 -8.5 -19t-19.5 -8zM795 0q-11 0 -19 8t-8 19v458q0 11 8 19t19 8t19.5 -8t8.5 -19v-458q0 -11 -8.5 -19t-19.5 -8zM585 475zM585 475zM922 892q-132 -22 -154 -27q-7 -1 -7.5 -6.5t3.5 -10.5l50 -49l-218 -230q-13 -13 -25 0l-130 130
q-15 15 -37 16t-38 -13l-256 -219q-9 -7 -10 -18.5t6 -20t18.5 -9.5t19.5 6l244 208q12 12 25 -2l143 -142q11 -11 26.5 -11t26.5 11l243 256l39 -39q5 -5 10 -3.5t6 7.5q1 5 13.5 77t13.5 77q2 5 -2.5 9.5t-9.5 2.5z" />
    <glyph glyph-name="community-o" unicode="&#xe63b;" 
d="M604.5 405q-19.5 0 -33 -13.5t-13.5 -33t13.5 -33.5t33 -14t33.5 14t14 33.5t-14 33t-33.5 13.5zM1024 767q0 27 -19.5 46.5t-46.5 19.5h-706q-28 0 -47 -19.5t-19 -46.5v-65h57v74h724v-464h-75v-56h66q27 0 46.5 19t19.5 46v446zM418.5 405q-19.5 0 -33 -13.5
t-13.5 -33t13.5 -33.5t33 -14t33.5 14t14 33.5t-14 33t-33.5 13.5zM838 581q0 28 -19.5 47t-46.5 19h-706q-28 0 -47 -19t-19 -47v-446q0 -27 19 -46t47 -19h83v-174l173 174h450q27 0 46.5 19t19.5 46v446zM777 130h-480l-88 -88v88h-148v457h716v-457zM232.5 405
q-19.5 0 -33 -13.5t-13.5 -33t13.5 -33.5t33 -14t33.5 14t14 33.5t-14 33t-33.5 13.5z" />
    <glyph glyph-name="mywallet" unicode="&#xe63c;" horiz-adv-x="1025" 
d="M834 -128h-640q-80 0 -136 56.5t-56 135.5v640q0 80 56 136t136 56h384q62 0 111 -35.5t69 -92.5h76q79 0 135.5 -56t56.5 -136v-512q0 -79 -56.5 -135.5t-135.5 -56.5zM578 832h-384q-49 0 -85 -32.5t-41 -79.5q55 48 126 48h494q-17 29 -46 46.5t-64 17.5zM962 448
q0 13 -9.5 22.5t-22.5 9.5h-320q-13 0 -22.5 -9.5t-9.5 -22.5v-192q0 -13 9.5 -22.5t22.5 -9.5h320q13 0 22.5 9.5t9.5 22.5v192v0zM962 160h-384q-27 0 -45.5 19t-18.5 45v256q0 27 18.5 45.5t45.5 18.5h384v32q0 53 -37.5 90.5t-90.5 37.5h-640q-53 0 -90.5 -37.5
t-37.5 -90.5v-512q0 -53 37.5 -90.5t90.5 -37.5h640q53 0 90.5 37.5t37.5 90.5v96v0zM642 384h64v-64h-64v64z" />
    <glyph glyph-name="myorder" unicode="&#xe633;" 
d="M867 865h-64q-15 0 -26.5 -8t-11.5 -21t12 -24t26 -11h64q28 0 46 -18t18 -46v-737q0 -28 -18 -46t-46 -18h-689q-30 0 -55 18.5t-25 45.5v737q0 28 17.5 46t46.5 18h80q12 0 18 10t6 25q0 29 -24 29h-80q-65 0 -96.5 -35.5t-31.5 -94.5v-728q0 -60 35.5 -97.5
t98.5 -37.5h692q65 0 100 34.5t35 100.5v728q0 57 -34 93.5t-94 36.5zM242 576q0 -13 9.5 -23t23.5 -10h480q13 0 23 10t10 23t-10 23t-23 10h-480q-14 0 -23.5 -10t-9.5 -23zM754 432h-479q-14 0 -23.5 -10t-9.5 -23t9.5 -22.5t23.5 -9.5h480q13 0 23 9.5t10 22.5
q-1 14 -11 23.5t-23 9.5zM754 240h-479q-14 0 -23.5 -9.5t-9.5 -23t9.5 -23t23.5 -9.5h480q13 0 23 9.5t10 22.5q-1 14 -11 23.5t-23 9.5zM404 784h223q20 0 34 17t14 39.5t-14.5 39t-34.5 16.5h-222q-20 0 -34.5 -16.5t-14.5 -39t14.5 -39.5t34.5 -17z" />
    <glyph glyph-name="mypublish" unicode="&#xe634;" 
d="M1025 553q0 14 -10 24.5t-25 10.5h-2q-14 0 -24 -10.5t-10 -24.5v-557h-883v780h484q15 0 25 10t10 24v2q0 14 -10 24t-25 10h-520q-14 0 -24.5 -9.5t-10.5 -23.5v-2v-850q0 -15 10 -25.5t24 -10.5h2q1 0 3 1h951q14 0 24 9.5t11 23.5v3v591v0zM299 233l2 -1
q10 -10 24.5 -10t24.5 10l519 518q10 11 10 25t-10 24l-1 2q-10 10 -24.5 10t-24.5 -11l-519 -518q-10 -10 -10.5 -24.5t9.5 -24.5z" />
    <glyph glyph-name="myenshrine" unicode="&#xe635;" 
d="M766 -100q-24 0 -46 11l-208 109l-208 -109q-21 -11 -46 -11q-31 0 -55 16q-23 16 -34 40.5t-6 51.5l40 235l-175 170q-19 19 -25.5 44.5t2.5 50.5t29.5 41.5t47.5 20.5l239 34l104 209q12 24 35.5 38.5t51.5 14.5t52 -14.5t36 -38.5l103 -209l239 -34q27 -4 47.5 -20.5
t29.5 -41.5t3 -50.5t-26 -44.5l-175 -170l41 -235q4 -27 -7 -51.5t-33 -40.5q-26 -16 -56 -16zM512 813q-28 0 -39 -23l-116 -234l-267 -39q-26 -3 -34 -27q-8 -22 9 -40l195 -189l-45 -262q-4 -24 18 -39q11 -7 25 -7q12 0 21 5l233 121l233 -121q10 -5 21 -5q14 0 26 7
q21 15 17 39l-45 262l195 189q18 18 10 40q-9 24 -35 28l-266 38l-116 234q-12 23 -40 23zM380 335q-11 0 -19 7.5t-8 17.5q0 9 1 22t12 43.5t32 50.5q41 42 111 42q11 0 19 -8t8 -18.5t-8 -18.5t-19 -8q-47 0 -73 -26q-30 -29 -30 -78q1 -10 -7 -18t-19 -8v0v0v0z" />
    <glyph glyph-name="attention-company" unicode="&#xe641;" 
d="M990 10h-34v478q0 57 -40 97t-97 40h-205v68q0 56 -40 96.5t-96 40.5h-273q-57 0 -97 -40.5t-40 -96.5v-683h-34q-14 0 -24 -9.5t-10 -24t10 -24.5t24 -10h956q14 0 24 10t10 24.5t-10 24t-24 9.5zM546 625v-615h-409v683q0 28 20 48t48 20h273q28 0 48 -20t20 -48v-68z
M888 10h-274v547h205q28 0 48.5 -20.5t20.5 -48.5v-478zM444 625h-205q-14 0 -24 -10t-10 -24.5t10 -24t24 -9.5h205q14 0 24 9.5t10 24t-10 24.5t-24 10zM444 420h-205q-14 0 -24 -10t-10 -24t10 -24t24 -10h205q14 0 24 10t10 24t-10 24t-24 10zM444 215h-205
q-14 0 -24 -10t-10 -24t10 -24t24 -10h205q14 0 24 10t10 24t-10 24t-24 10zM785 420h-68q-14 0 -24 -10t-10 -24t10 -24t24 -10h68q14 0 24 10t10 24t-10 24t-24 10zM785 215h-68q-14 0 -24 -10t-10 -24t10 -24t24 -10h68q14 0 24 10t10 24t-10 24t-24 10z" />
    <glyph glyph-name="balance" unicode="&#xe642;" horiz-adv-x="1026" 
d="M829 273q0 -19 13.5 -32.5t32.5 -13.5t32.5 13.5t13.5 32.5t-13.5 32.5t-32.5 13.5t-32.5 -13.5t-13.5 -32.5zM862 733l-77 133q-12 22 -36 28t-46 -6l-267 -155h426zM846 173q-41 0 -70 29t-29 70.5t29 70.5t70 29h178v241q0 25 -17.5 42.5t-42.5 17.5h-904
q-25 0 -42.5 -17.5t-17.5 -42.5v-681q0 -25 17.5 -42.5t42.5 -17.5h904q25 0 42.5 17.5t17.5 42.5v241h-178z" />
    <glyph glyph-name="coupon" unicode="&#xe647;" 
d="M1025 480v177q0 27 -19.5 46t-46.5 19h-893q-27 0 -46.5 -19t-19.5 -46v-179q41 0 70 -29t29 -69t-29 -69t-70 -29v-178q0 -27 19.5 -46.5t46.5 -19.5h703v43h42v-43h148q27 0 46.5 19.5t19.5 46.5v180q-41 0 -70 29t-29 69.5t29 69t70 28.5zM561 377v-49h-112v-68h112
v-49h-112v-98h-61v98h-115v49h115v68h-115v49h97l-118 221h69l83 -172q7 -15 16 -37h1q7 18 17 38l83 171h65l-120 -221h95zM811 124h-42v43h42v-43zM811 209h-42v43h42v-43zM811 295h-42v42h42v-42zM811 380h-42v43h42v-43zM811 465h-42v43h42v-43zM811 551h-42v43h42v-43z
M811 636h-42v43h42v-43z" />
    <glyph glyph-name="combo" unicode="&#xe648;" horiz-adv-x="1027" 
d="M120 431h347v332q0 50 -35.5 85t-85.5 35h-226q-49 0 -84.5 -35.5t-35.5 -84.5v-211q0 -50 35.5 -85.5t84.5 -35.5zM1028 551v212q0 50 -35 85t-85 35h-223q-50 0 -85.5 -35t-35.5 -85v-332h345q49 0 84 35.5t35 84.5zM685 -118h228q49 0 82 35t33 85v212q0 50 -35 85
t-85 35h-345v-332q0 -49 35.5 -84.5t86.5 -35.5zM120 -118h226q50 0 85.5 35.5t35.5 84.5v332h-347q-49 0 -84.5 -35t-35.5 -85v-212q0 -49 35.5 -84.5t84.5 -35.5z" />
    <glyph glyph-name="alipay" unicode="&#xe649;" 
d="M512 -128q104 0 198.5 40.5t163.5 109.5t109.5 163.5t40.5 198.5t-40.5 198.5t-109.5 163.5t-163.5 109.5t-198.5 40.5t-198.5 -40.5t-163.5 -109.5t-109.5 -163.5t-40.5 -198.5t40.5 -198.5t109.5 -163.5t163.5 -109.5t198.5 -40.5zM461 573v83h93v-83h188v-39h-188v-51
h156q-3 -29 -22 -83q-9 -24 -18.5 -44t-14.5 -28l-5 -8l304 -99q-10 -29 -23 -55q-5 -11 -13 -24t-14 -20l-5 -7l-291 138q-6 -7 -16.5 -18t-40 -34t-55.5 -35q-105 -49 -189 -25q-56 13 -86 48.5t-26 95.5q5 39 32.5 65.5t62.5 36.5t75 10q20 0 49 -5t56 -12t50.5 -14
t38 -12l14.5 -5q13 25 22 54q6 13 9 26.5t4 20.5v8h-288v28h141v55h-176v38h176v-6zM541 285q-4 -4 -10.5 -11t-26.5 -24.5t-41 -31t-51.5 -25t-59.5 -11.5q-69 0 -97 25t-28 59q0 31 25 53t84 27q80 6 199 -58zM541 285z" />
    <glyph glyph-name="privilege" unicode="&#xe64a;" horiz-adv-x="1027" 
d="M3 536q0 30 10 44q10 13 44 13h142v-567h-61h-48q-32 1 -33 1q-30 -1 -42 10.5t-12 42.5v163q0 13 3.5 19t16.5 9q4 0 12 3q8 4 15 11q8 8 14 19q5 12 5 29q0 26 -13 41q-15 15 -30 17q-12 2 -17.5 7.5t-5.5 17.5v120zM95 644v29q0 23 17 42t37 19h154v-90h-208z
M1001 398q-9 -3 -13 -10q-4 -8 -4 -16q0 -9 4 -18t13 -12q9 -4 14 -13q5 -11 5 -22v-3q0 -10 -3 -19q-3 -10 -9 -14q-23 -14 -23 -31t23 -34q4 -3 8 -12q4 -10 4 -19t-5 -15q-4 -7 -15 -7h-60q-7 0 -7.5 1t1.5 4t6 6q3 3 5 8q6 16 0 27q-5 12 -19 20q-9 4 -12 14q-4 9 -4 20
q1 10 4.5 18t9.5 11q9 4 13 13q5 9 5 19q0 9 -3 19q-4 8 -11 12q-8 4 -13 13t-5 20.5t4 22.5q5 11 14 17q7 5 12 13q4 7 5 17q0 8 -4 17t-14 14q-11 6 -16 17t-5 22t5 21q5 11 14 16q19 11 21 28q1 18 -3 32q-4 12 -13 21q-10 9 -26 9h-533v89h625q8 0 14 -5q5 -6 7 -14
t-1 -16q-3 -9 -11 -15q-7 -6 -12 -14q-4 -9 -5 -19q-1 -9 3 -19q3 -10 12 -14q12 -7 18 -19t6 -24t-6 -22t-17 -15q-12 -5 -17.5 -13t-6.5 -18q0 -11 4 -20q6 -10 17 -17t16 -18t4 -23q0 -11 -5 -21q-6 -9 -15 -10zM856 415q-13 -4 -20 -13q-7 -10 -8 -20t5 -21
q7 -10 19 -14q11 -5 16 -14q6 -9 6.5 -19t-4 -19.5t-13.5 -13.5q-27 -14 -28 -33q-2 -19 21 -31q10 -4 16 -14q6 -9 6 -20q1 -11 -4 -19q-4 -9 -14 -13q-13 -3 -21 -12q-7 -9 -7.5 -19t5.5 -21q6 -10 20 -17q8 -4 13 -14q3 -9 2 -19q-1 -9 -6 -16t-14 -7h-581v567h588
q9 0 14 -8q5 -7 5 -16q1 -9 -4 -18q-4 -9 -14 -12.5t-16 -11.5t-7 -18q-1 -9 4 -18q6 -9 19 -14q10 -5 16 -14t7 -18q0 -10 -5 -18q-5 -9 -16 -12zM588 339q-5 0 -11 1t-3 7q8 12 11 15q68 100 168 164q-129 -115 -129 -110l3 4q11 15 13 17q5 9 -7 22q-2 2 -9 7q-6 4 -12 6
q-9 4 -13 2q-4 -3 -9 -11q-8 -11 -12 -16q-3 -4 -18 -28q-9 -12 -19 -26q-8 -12 -9 -15q-2 -4 -8.5 -3t-8.5 6q-2 3 -10 13q-49 57 -70 130q39 -84 36 -85q-1 0 -4 5q-9 11 -13 16q-10 19 -21 12q-8 -4 -14 -9t-12 -9q-11 -7 -3 -20q20 -24 33 -42q16 -21 24 -31
q10 -13 13 -17q2 -4 -5 -4h-13q-7 0 -16 -1q-11 0 -20 1q-9 0 -14 -5q-6 -4 -3 -11q1 -5 1 -14v-13q0 -6 3 -7h8h65q13 0 13 -6v-21q0 -6 -2 -6h-75q-6 1 -9 -3q-2 -5 -3 -10.5t0 -10.5t1 -9q0 -15 14 -15h67q6 0 7 -1q1 -2 1 -8q1 -6 0 -20v-19q0 -13 14 -13h36q9 0 9 6v45
q0 12 10 12h10h17q13 1 18 1h15q15 0 15 11v25q0 10 -11 10h-64q-11 -2 -11 5q0 4 -1 8v10q0 5 3 7q4 2 9 2h65q6 0 9 2t3 6v27q0 5 -4 9.5t-10 4.5h-38zM588 339z" />
    <glyph glyph-name="sunscore" unicode="&#xe64b;" 
d="M833 113q-47 -27 -132.5 -42.5t-187.5 -15.5t-187.5 15.5t-132.5 42.5q-123 49 -168 125q-24 -40 -24 -73q0 -70 68.5 -129t186.5 -93t257 -34t257 34t186.5 93t68.5 129q0 33 -24 73q-45 -76 -168 -125zM833 332q-47 -26 -132.5 -42t-187.5 -16t-187.5 16t-132.5 42
q-123 50 -168 125q-24 -40 -24 -73q0 -69 68.5 -128t186.5 -93.5t257 -34.5t257 34.5t186.5 93.5t68.5 128q0 34 -24 73q-45 -75 -168 -125zM151 422q150 -75 362 -75t362 75q71 36 110 82q40 47 40 99q0 19 -8 41q-30 92 -172 153.5t-332 61.5t-332 -61.5t-172 -153.5
q-8 -22 -8 -41q0 -52 40 -99q39 -46 110 -82z" />
    <glyph glyph-name="score" unicode="&#xe64e;" 
d="M939 -2h-861q-12 0 -20.5 8.5t-8.5 20.5q0 64 30.5 119t84.5 88v288q-1 16 -1 26q0 94 46 173.5t126 126t173.5 46.5t173.5 -46.5t126 -126t46 -173.5q0 -10 -1 -28v-286q54 -33 84.5 -88t30.5 -119q0 -12 -8.5 -20.5t-20.5 -8.5v0zM109 56h799q-6 43 -32 79t-65 57
q-16 8 -16 26v304q2 20 2 26q0 119 -84.5 203.5t-204 84.5t-204 -84.5t-84.5 -203.5q0 -8 1 -23l1 -307q0 -18 -16 -26q-39 -21 -64.5 -57t-32.5 -79v0zM508.5 -128q-80.5 0 -136 40.5t-55.5 99.5q0 11 8.5 19.5t20.5 8.5t20 -8.5t8 -19.5q0 -34 40 -58t94.5 -24t94.5 24
t40 58q0 11 8 19.5t20 8.5t20.5 -8.5t8.5 -19.5q0 -59 -55.5 -99.5t-136 -40.5zM509 -128z" />
    <glyph glyph-name="type" unicode="&#xe63f;" horiz-adv-x="1025" 
d="M148 -127h-108l-39 1l-1 39v173q3 131 71 198q70 70 170 70t170 -70t70 -170t-70 -170q-67 -68 -198 -71h-65zM55 -72q121 0 157 1q108 2 160 54q54 54 54 131t-54 131t-131 54t-131 -54q-52 -52 -54 -160q-1 -36 -1 -157zM240.5 414q-99.5 0 -169.5 70q-68 68 -71 198
v174l1 38l39 1q129 1 173 0q131 -3 198 -70q70 -71 70 -170.5t-70.5 -170t-170 -70.5zM55 840q0 -121 1 -157q2 -108 54 -160q54 -54 131 -54t131 54.5t54 131t-54 131.5q-52 51 -160 54h-157zM874 -127h-65q-131 3 -198 71q-70 70 -70 170t70.5 170t170 70t170.5 -70
q67 -67 70 -198q1 -42 0 -173l-1 -39l-38 -1h-109zM781.5 299q-76.5 0 -131 -54t-54.5 -131t54 -131q52 -52 160 -54q38 -1 157 -1v157q-3 108 -54 160q-55 54 -131.5 54zM781.5 414q-99.5 0 -170 70.5t-70.5 170t70 170.5q67 67 198 70q40 1 174 0l38 -1l1 -38
q1 -132 0 -174q-3 -130 -70 -198q-71 -70 -170.5 -70zM874 840h-64q-108 -3 -160 -54q-54 -55 -54 -131.5t54.5 -131t131 -54.5t131.5 54q51 52 54 160v157h-93zM874 840z" />
    <glyph glyph-name="address-c" unicode="&#xe652;" 
d="M527 -118q-8 -5 -18 -5t-18 5q-14 8 -34.5 22t-71 51t-96.5 76.5t-100.5 96.5t-94 112.5t-66 123t-26.5 129.5q0 108 68 199.5t184.5 145t254 53.5t254.5 -53.5t185 -145t68 -199.5q0 -62 -26.5 -129.5t-66 -123t-94 -112.5t-100.5 -96.5t-96.5 -76.5t-71 -51t-34.5 -22z
M509 844q-121 0 -224.5 -47t-163.5 -128t-60 -176q0 -51 21 -106.5t52.5 -103.5t76 -98t85.5 -87t87 -74t73.5 -56.5t52.5 -36.5q25 17 52.5 36.5t73.5 56.5t86.5 74t85.5 87t76.5 98t52 103.5t20.5 106.5q0 95 -60 176t-163 128t-224 47zM714 460q-2 -9 -12.5 -14.5
t-22.5 -4.5q-12 2 -19 10t-5 18q3 11 3 21q0 48 -44 82.5t-105.5 34.5t-105 -34.5t-43.5 -83t43.5 -83t105.5 -34.5q11 0 26 2q13 2 23 -3.5t12 -15t-5 -17.5t-19 -10q-21 -3 -37 -3q-86 0 -147.5 48.5t-61.5 116.5t61.5 116.5t147.5 48.5t147 -48.5t61 -116.5q0 -14 -3 -30
v0zM714 460z" />
    <glyph glyph-name="delete-d" unicode="&#xe653;" 
d="M354 65v520q0 11 -8 19.5t-19.5 8.5t-20 -8.5t-8.5 -19.5v-520q0 -11 8.5 -19.5t20 -8.5t19.5 8.5t8 19.5zM916.5 636q-11.5 0 -19.5 -8t-8 -20v-637q0 -18 -13 -30.5t-30 -12.5h-662q-17 0 -30 12.5t-13 30.5v637q0 12 -8 20t-19 8h-1q-17 0 -25 -15l-2 1v-651
q0 -41 29 -70t69 -29h662q40 0 69 29t29 70v637q0 12 -8 20t-19.5 8zM543 65v520q0 11 -8 19.5t-20 8.5t-20 -8.5t-8 -19.5v-520q0 -11 8 -19.5t20 -8.5t20 8.5t8 19.5zM732 65v520q0 11 -8.5 19.5t-20 8.5t-19.5 -8.5t-8 -19.5v-520q0 -11 8 -19.5t19.5 -8.5t20 8.5
t8.5 19.5zM987 802h-270l-86 85q-8 9 -20 9h-192q-12 0 -20 -9l-86 -85h-270q-12 0 -20 -8.5t-8 -20t8 -19.5t20 -8h285q12 0 21 8l85 86h162l86 -86q8 -8 21 -8h284q12 0 20 8t8 19.5t-8 20t-20 8.5z" />
    <glyph glyph-name="share-a" unicode="&#xe655;" horiz-adv-x="1026" 
d="M973 61q0 -56 -39.5 -95.5t-95.5 -39.5h-647q-55 0 -94.5 39.5t-39.5 95.5v646q0 56 39.5 95.5t94.5 39.5h119v54h-119q-78 0 -133 -55.5t-55 -133.5v-646q0 -78 55 -133.5t133 -55.5h647q78 0 133.5 55.5t55.5 133.5v119h-54v-119zM591 896v-54h344l-621 -621l38 -38
l621 621v-343h54v435h-436z" />
    <glyph glyph-name="zang-a" unicode="&#xe644;" 
d="M884 543q-13 1 -47 -3t-76.5 -9.5t-63.5 -7.5q2 14 5.5 27t11.5 39t12 40q3 11 10 32t10.5 32.5t8 33.5t4.5 35t-1 36q-5 38 -28.5 63.5t-52 30.5t-57 -11t-41.5 -52l-54 -126q-5 -7 -14 -22t-12 -19t-11 -15t-13 -16t-14.5 -15t-20.5 -18t-25.5 -18.5t-33.5 -23.5
q-72 -50 -121 -89q-23 -18 -23 -39v-430q0 -23 20 -36q47 -33 185 -58.5t234 -25.5q42 0 57 0.5t40 6t48 17.5q15 9 27 26.5t15 20.5q26 23 36.5 54.5t12.5 55t7 28.5q30 29 43 64.5t15.5 66t4.5 34.5q12 27 16 42t6 29.5t6 29.5q12 42 12.5 74t-9 52.5t-28.5 34.5
t-43.5 20.5t-57.5 8.5zM76.5 506q-31.5 0 -53.5 -21.5t-22 -51.5v-439q0 -30 22 -51.5t53.5 -21.5t53.5 21.5t22 51.5v439q0 30 -22 51.5t-53.5 21.5z" />
    <glyph glyph-name="collect-b" unicode="&#xe645;" 
d="M1019 510q-8 24 -28 40t-46 20l-243 36l-105 215q-12 24 -35 38t-49.5 14t-49.5 -14t-34 -38l-106 -215l-243 -36q-26 -4 -45.5 -20t-28.5 -40q-8 -24 -2.5 -49t24.5 -43l178 -175l-41 -244q-4 -25 6 -49t32 -39t48.5 -16t49.5 11l212 112l211 -112q21 -11 45 -11
q29 0 53 16q22 15 32.5 39t5.5 49l-41 244l178 175q19 18 25 43t-3 49v0v0zM966 450l-195 -192l45 -266q5 -28 -19 -44q-25 -17 -52 -3l-232 123l-233 -123q-27 -14 -52 3q-24 16 -19 44l45 266l-195 192q-20 19 -11 45q9 27 39 31l266 39l116 237q13 26 44 26t44 -26
l115 -237l266 -39q30 -4 39 -31q9 -26 -11 -45v0v0zM510 509q-65 0 -102 -39q-19 -19 -29 -47t-11.5 -40.5t-0.5 -20.5q0 -8 6 -14t14 -6h1q8 0 14 6.5t6 14.5q0 48 30 78q25 26 72 26q8 0 14.5 6t6.5 15t-6.5 15t-14.5 6z" />
    <glyph glyph-name="collect-a" unicode="&#xe646;" 
d="M1011 506v0q-8 24 -28 39.5t-45 19.5l-240 35l-104 214q-12 23 -34.5 36.5t-49 13.5t-49 -13.5t-33.5 -36.5l-104 -214l-240 -35q-26 -4 -45.5 -19.5t-28.5 -39.5q-8 -24 -2 -48.5t24 -42.5l176 -174l-41 -240q-4 -25 6.5 -48.5t31.5 -38.5q21 -14 47.5 -15.5t49.5 10.5
l209 111l209 -111q21 -11 44 -11q28 0 52 16q22 15 32.5 38.5t5.5 48.5l-41 240l177 174q18 18 24 42.5t-3 48.5zM508 463q-46 0 -71 -25q-29 -30 -29 -77q0 -9 -6 -15t-14 -6h-1q-8 0 -14 6t-6 14q-1 8 0 20t11.5 39.5t28.5 46.5q37 39 101 39v0q8 0 14.5 -6.5t6.5 -15
t-6.5 -14.5t-14.5 -6zM970 491q-10 27 -38 31l-263 38l-115 234q-13 26 -43.5 26t-43.5 -26l-114 -234l-263 -38q-29 -4 -38 -31q-9 -25 11 -45l192 -189l-45 -263q-4 -27 20 -44q25 -17 51 -2l230 121l229 -122q27 -14 52 3q24 17 19 44l-45 263l193 189q20 20 11 45z
M508 463q-46 0 -71 -25q-29 -30 -29 -77q0 -9 -6 -15t-14 -6h-1q-8 0 -14 6t-6 14q-1 8 0 20t11.5 39.5t28.5 46.5q37 39 101 39v0q8 0 14.5 -6.5t6.5 -15t-6.5 -14.5t-14.5 -6z" />
    <glyph glyph-name="type-a" unicode="&#xe65d;" horiz-adv-x="1025" 
d="M148 -128h-108l-39 1l-1 39v174q3 130 71 197q70 71 170 71t170.5 -70.5t70.5 -170.5t-71 -170q-67 -68 -197 -71h-66zM56 -72q120 -1 156 0q109 2 160 54q55 54 55 131t-54.5 131.5t-131.5 54.5t-131 -55q-52 -51 -54 -160q-1 -36 0 -156v0zM241 414q-100 0 -170 70
q-68 67 -71 198v174l1 39h39q129 1 174 0q130 -3 197 -70q71 -71 71 -170.5t-70.5 -170t-170.5 -70.5zM56 840q-1 -121 0 -157q2 -108 54 -160q54 -54 131 -54t131.5 54t54.5 131t-55 132q-51 51 -160 54q-36 1 -156 0v0zM875 -128h-65q-131 4 -198 71q-70 70 -70 170
t70.5 170.5t170 70.5t170.5 -71q67 -67 70 -197q1 -42 0 -174v-39l-39 -1h-109zM782 299q-77 0 -131 -54.5t-54 -131.5t54 -131q52 -52 160 -54q38 -1 157 0q1 120 0 156q-3 109 -54 160q-55 55 -132 55zM782.5 414q-99.5 0 -170 70.5t-70.5 170t70 170.5q67 67 198 70
q40 1 174 0h39v-39q1 -132 0 -174q-3 -131 -70 -198q-71 -70 -170.5 -70zM875 840h-64q-108 -3 -160 -54q-54 -55 -54 -132t54 -131t131 -54t132 54q51 52 54 160q1 36 0 157h-93zM875 840z" />
    <glyph glyph-name="time-b" unicode="&#xe65e;" 
d="M510.5 -124q-103.5 0 -197.5 40.5t-162 108.5t-108 162t-40 197t40 197t108 162t162 108t197.5 40t197.5 -40t162 -108t108 -162t40 -197t-40 -197t-108 -162t-162 -108.5t-197.5 -40.5zM510.5 834q-91.5 0 -175 -35.5t-143.5 -96t-95.5 -144t-35.5 -175t35.5 -174.5
t95.5 -143.5t143.5 -96t175 -35.5t175 35.5t143.5 96t96 143.5t36 174.5t-36 175t-96 144t-143.5 96t-175 35.5zM271.5 225q-5.5 11 -1.5 23t16 17l222 74v313q0 12 8.5 21t21 9t21 -9t8.5 -21v-329v-2v-2q1 -20 -17 -29l-239 -79q-11 -6 -22.5 -1.5t-17 15.5zM771 257z" />
    <glyph glyph-name="address-b" unicode="&#xe65f;" 
d="M529 -118q-8 -5 -18.5 -5t-18.5 5q-13 8 -34 22t-71.5 51.5t-96.5 77t-100.5 96.5t-94.5 113t-66.5 123t-26.5 130q0 108 68 200t185.5 145.5t255 53.5t255 -53.5t185.5 -145.5t68 -200q0 -63 -26.5 -130t-66.5 -123t-94.5 -113t-100.5 -96.5t-96.5 -77t-71.5 -51.5
t-34 -22zM510.5 846q-121.5 0 -225 -47t-163.5 -128t-60 -176q0 -52 20.5 -107.5t52.5 -103.5t76.5 -98t85.5 -87.5t87 -74.5t73.5 -56.5t53.5 -36.5q25 17 52.5 36.5t73.5 56.5t87 74.5t85.5 87.5t76.5 98t52.5 103.5t20.5 107.5q0 95 -60 176t-163.5 128t-225 47zM716 462
q-2 -10 -12.5 -15.5t-22.5 -3.5t-19 10t-5 17q3 12 3 21q0 49 -44 83.5t-105.5 34.5t-105.5 -34.5t-44 -83t44 -83t106 -34.5q11 0 26 2q12 1 22.5 -4.5t12.5 -15t-5 -17.5t-19 -10q-21 -3 -37 -3q-87 0 -148.5 48.5t-61.5 117t61.5 117t148 48.5t148 -48.5t61.5 -117.5
q0 -13 -4 -29v0zM716 462z" />
    <glyph glyph-name="activity" unicode="&#xe660;" 
d="M876 646v-1q-8 -8 -8 -19.5t8 -19.5q7 -8 19 -8t20 8l72 72q37 38 37 90.5t-37.5 90t-90 37.5t-90.5 -37l-61 -62h-306q-12 0 -20 -8l-389 -389q-30 -30 -30 -72.5t30 -72.5l353 -353q30 -30 72.5 -30t72.5 30l389 389q8 8 8 19v178q0 11 -8 19t-19.5 8t-19.5 -8t-8 -19
v-166l-381 -381q-14 -14 -33.5 -14t-33.5 14l-353 353q-13 14 -13 33.5t13 33.5l381 380h239l-20 -20q-37 -37 -37 -90t38 -91l2 -1q8 -7 18.5 -6.5t17.5 6.5q9 8 9.5 19.5t-7.5 20.5l-2 2q-21 21 -20.5 50.5t20.5 50.5l138 137q21 21 51 21t51 -21t21 -51t-21 -51z" />
    <glyph glyph-name="price" unicode="&#xe663;" 
d="M510 -125q-104 0 -198 40.5t-162 108.5t-108.5 162.5t-40.5 198t40.5 197.5t108.5 162t162 108.5t198 40.5t198 -40.5t162 -108.5t108.5 -162t40.5 -197.5t-40.5 -198t-108.5 -162.5t-162 -108.5t-198 -40.5zM510 837q-92 0 -176 -36t-144.5 -96.5t-96 -144.5t-35.5 -176
t35.5 -176t96 -144.5t144.5 -96t176 -35.5t176 35.5t144.5 96t96 144.5t35.5 176t-35.5 176t-96 144.5t-144.5 96.5t-176 36zM578 441h130q12 0 20 -8.5t8 -20t-8 -20t-20 -8.5h-170v-85h170q12 0 20 -8t8 -20t-8 -20t-20 -8h-170v-113q0 -12 -8 -20.5t-20 -8.5t-20 8.5
t-8 20.5v113h-170q-12 0 -20 8t-8 20t8 20t20 8h170v85h-170q-12 0 -20 8.5t-8 20t8 20t20 8.5h130l-178 177q-8 9 -8 21t8.5 20t20.5 8t20 -8l206 -206l205 206q8 8 20 8t20 -8t8 -20t-8 -20z" />
    <glyph glyph-name="unit" unicode="&#xe665;" 
d="M894 714l52 52l-53 53l-52 -52q-68 59 -152.5 91t-178.5 32q-103 0 -196.5 -40t-161.5 -108t-108 -161.5t-40 -197t40 -197t108 -161.5t161.5 -108t197 -40t197 40t161.5 108t108 161.5t40 197.5q0 93 -32 177.5t-91 152.5zM510.5 -51q-117.5 0 -217.5 58.5t-158.5 158.5
t-58.5 217.5t58.5 217.5t158.5 158.5t217 58.5q159 0 280 -102l-353 -353l53 -53l353 353q102 -121 102 -279q0 -118 -58.5 -218t-158.5 -158.5t-217.5 -58.5z" />
    <glyph glyph-name="wechat-b" unicode="&#xe666;" 
d="M690 550q15 0 35 -2q-24 109 -127.5 181t-236.5 72q-98 0 -181 -40.5t-131.5 -111.5t-48.5 -155q0 -142 144 -243l-36 -109l126 63q6 -1 25.5 -5t27 -5t22 -3.5t27 -3.5t25.5 -1q15 0 33 2q-11 38 -11 75q0 119 89.5 202.5t217.5 83.5zM496 648q20 0 32.5 -12.5t12.5 -33
t-12.5 -33t-32.5 -12.5q-21 0 -37.5 13t-16.5 32.5t16.5 32.5t37.5 13zM244 557q-22 0 -38.5 13t-16.5 32.5t16.5 32.5t38.5 13q20 0 32.5 -12.5t12.5 -33t-12.5 -33t-32.5 -12.5zM1019 269q0 70 -42.5 130.5t-113 95.5t-150.5 35q-129 0 -218 -76.5t-89 -185t89 -185
t218 -76.5q36 0 108 18l99 -54l-27 90q126 95 126 208zM613 314q-13 0 -24.5 11t-11.5 24.5t11.5 25t24.5 11.5q20 0 32.5 -11t12.5 -25t-12.5 -25t-32.5 -11zM812 314q-14 0 -25 11t-11 24.5t11 25t25 11.5q19 0 32 -11t13 -25t-13 -25t-32 -11z" />
    <glyph glyph-name="wechatfriend-b" unicode="&#xe669;" 
d="M717 513v331q-7 3 -19 8.5t-50.5 17t-78 16.5t-96.5 0.5t-110 -22.5zM748 319v511q8 -3 21 -10.5t49.5 -33.5t67 -57.5t62.5 -84t48 -111.5zM644 170l357 332q2 -4 6 -12.5t9.5 -38t5 -65t-13 -93.5t-38.5 -123h-326zM462 128h482q-3 -6 -8 -17t-26.5 -41.5t-48.5 -57
t-76.5 -56.5t-107.5 -48zM304 233v-311q6 -3 15.5 -8t42.5 -15.5t70 -16t94.5 -3.5t117.5 17zM26 217l244 217v-493q-6 2 -16.5 7t-41 25.5t-59 48.5t-64.5 80t-63 115zM20 252q-3 7 -6 20t-8.5 52t-5.5 77t10 89.5t32 94.5h336zM63 620q3 6 9 17t28.5 42.5t49.5 59.5
t74.5 60.5t101.5 53.5l229 -233h-492zM63 620z" />
    <glyph glyph-name="sinaweibo-b" unicode="&#xe66d;" horiz-adv-x="1105" 
d="M2 896zM821 355q-17 4 -22 10.5t-2 12.5l4 5q1 1 2 3.5t4.5 10t5 14.5t2.5 18t-0.5 20.5t-6.5 21t-14 20.5q-16 15 -41.5 20t-51 1t-48 -10.5t-36.5 -11.5l-15 -7q-11 -4 -18.5 -5t-11.5 1t-6 3.5t-1.5 7.5t1 10.5t2.5 14t3 15.5q0 14 -1.5 25.5t-7 26.5t-16.5 24
t-27 14.5t-42 3.5t-59 -14q-40 -13 -80.5 -39.5t-70.5 -55.5t-55 -56t-38 -44l-13 -18q-37 -49 -55 -97.5t-17 -73.5v-23q7 -54 33.5 -97t63 -69.5t86.5 -45.5t95.5 -27.5t96.5 -11.5q84 -7 173.5 13t167 68.5t109.5 116.5q19 39 19.5 74t-12 57t-32 39t-37 25t-31.5 10v0z
M477 4q-122 -6 -207.5 47t-85.5 135q0 80 85 138t208 64t207.5 -40.5t84.5 -126.5q0 -82 -86.5 -146.5t-205.5 -70.5v0zM444 317q-33 -4 -59 -15.5t-40.5 -27t-25 -33t-14 -34.5t-5 -31t-1.5 -22l1 -9v-4q0 -4 2.5 -14t6.5 -18.5t13 -18.5t21 -17q75 -36 139.5 -22t103.5 65
q16 19 21 47t-2.5 57t-25.5 52.5t-53.5 36.5t-81.5 8v0zM403 103q-7 -1 -13 -0.5t-11 2.5l-10 4t-9 6q-16 19 -23 42q3 -5 6 -12l7 -14v1q-2 5 -2 11q0 12 6.5 24t18.5 20.5t27 9.5q10 1 19.5 -0.5t16.5 -5.5t12 -9t7 -12t2 -15q0 -12 -7 -23.5t-19.5 -19.5t-27.5 -9v0z
M499 185q-8 -6 -16.5 -5.5t-11.5 7.5l-2 4q-1 3 -1 5v4q0 4 1 6l2 5q1 2 3 3l4 4q9 7 17.5 6t11.5 -9q3 -4 2.5 -10t-3 -11t-7.5 -9v0zM900 421q7 0 12.5 3t9 8.5t4.5 10.5q1 1 1 4q14 128 -90 146q-31 6 -57 2q-8 0 -13.5 -4t-9.5 -10.5t-4 -13.5q0 -11 8 -19t19 -8
q88 21 95 -56q2 -19 -2 -36q0 -12 8 -19.5t19 -7.5v0zM881 739q-50 11 -133 -4q-2 0 -3 -2l-1 -2l-1 -1q-12 -3 -20 -14t-8 -23q0 -17 11 -28.5t27 -11.5h4q1 0 5 1t8.5 2t9.5 2.5t9 3t15 1.5t27.5 -1.5t36.5 -8.5t39.5 -17t39.5 -28t34 -42q30 -66 12 -128q0 -2 -0.5 -3
l-2.5 -5q-6 -28 -19 -52l15 34v-1v0q-1 -6 -1 -11q0 -10 5.5 -16.5t14 -9.5t19.5 -3q32 0 38 38q13 44 14.5 84.5t-5.5 71t-22 57t-34 45t-42.5 33.5t-45.5 24t-46 15v0zM881 739z" />
    <glyph glyph-name="qq-b" unicode="&#xe66e;" 
d="M155 435l-2 6l-1 7l-1 5v17l2 7l1 7l3 7l3 9l5 9l6 8v6v6l1 8l3 9l2 9l2 4l3 5l2 4l4 3v22l1 11l2 13l4 16l4 16l3 9l4 9l3 9l5 10l4 10l5 10l6 11l7 10l3 6l4 5l8 12l8 11l9 11l9 11l11 11l11 12l13 12l8 7l11 8l10 7l11 7l11 6l12 5l13 6l13 4l13 5l14 4l14 3l14 3
l15 2l15 2l14 2l16 1h46l15 -2l15 -2l16 -1l15 -4l15 -3l14 -4l16 -4l15 -5l14 -6l14 -6l14 -7l13 -7l13 -9l11 -7l5 -5l5 -3l11 -9l8 -8l9 -9l8 -9l7 -10l9 -9l5 -11l6 -9l6 -11l5 -9l9 -20l4 -10l4 -9l3 -11l3 -9l2 -8l3 -10l4 -18l3 -15l2 -15l2 -12l3 -18v-2l2 -4l6 -9
l4 -6l3 -7l4 -7l4 -9l2 -8l3 -10l2 -9l1 -5l1 -6v-5l-1 -5v-7l-2 -6l-2 -12l-4 -6l-2 -7v-1l1 -2l3 -5l14 -20l11 -15l5 -10l7 -11l6 -12l7 -13l6 -15l8 -16l5 -10l4 -10l3 -10l4 -10l2 -10l3 -9l3 -18l3 -18l2 -16v-23l-2 -8l-1 -14l-3 -13l-3 -11l-2 -5l-2 -6l-3 -3l-3 -5
l-2 -3l-3 -4l-3 -3l-3 -3l-4 -2l-3 -1l-3 -1h-4l-3 1l-5 2l-5 4l-3 2l-2 3l-5 5l-5 7l-4 7l-5 6l-4 7l-5 12l-7 12l-1 1h-1l-2 -2l-2 -4l-2 -4l-5 -12l-6 -17l-9 -21l-6 -10l-7 -11l-8 -12l-9 -12l-4 -6l-5 -6l-12 -11l1 -2l2 -1l6 -4l25 -12l11 -6l10 -6l10 -8l10 -7l4 -4
l3 -4l4 -5l3 -5l1 -4l2 -5l1 -4l1 -5l-1 -4v-3l-1 -4l-2 -3v-3l-2 -3l-5 -6l-4 -5l-3 -4l-3 -3l-7 -5l-8 -4l-8 -4l-9 -4l-10 -4l-5 -2l-5 -1l-12 -3l-24 -5l-13 -2l-13 -1l-14 -2h-43l-16 1l-14 2l-16 2l-15 2l-16 2l-16 4l-16 3l-15 4l-16 6l-15 4l-8 3l-7 3l-5 1l-4 1
h-13l-15 1l-7 1l-10 1l-6 -5l-9 -6l-11 -5l-13 -7l-7 -4l-8 -3l-18 -7l-10 -3l-10 -2l-14 -3l-9 -1l-9 -1l-10 -1h-11h-46h-26l-25 3l-13 2l-24 3l-12 3l-11 3l-11 3l-11 4l-9 4l-9 4l-8 5l-7 5l-3 3l-3 3l-3 3l-2 3l-2 4l-2 3l-2 7l-1 4l-1 4v4l1 4v4l1 4v9v4l2 5l2 5l3 7
l2 2l2 3l5 6l3 3l4 2l3 2l6 2l4 3l5 2l6 2l6 2l7 1l14 2l9 1l2 1h1l1 1v1l-2 2l-4 2l-12 10l-7 6l-9 7l-9 9l-9 11l-11 12l-4 7l-5 7l-4 8l-4 9l-6 8l-3 9l-5 10l-4 10l-3 10l-3 13h-1h-1v1h-1l-2 -1h-1l-1 -2v-3l-1 -2l-2 -4l-5 -9l-3 -6l-4 -4l-5 -6l-5 -7l-5 -5l-6 -6
l-6 -5l-6 -4l-7 -5l-7 -2l-7 -2l-8 -1h-2l-2 1l-1 3l-2 1l-3 8l-2 3l-2 6l-2 6l-1 6l-2 13l-1 7v26l1 18l2 10l1 10l2 11l3 10l3 11l3 11l5 12l4 11l6 11l5 12l7 11l8 12l8 11l8 12l7 9l9 10l9 9l5 5l5 5l8 7l7 7l13 11l10 7zM155 435z" />
    <glyph glyph-name="comment" unicode="&#xe670;" 
d="M260 528q-26 0 -44.5 -19t-18.5 -46t18.5 -46.5t44.5 -19.5t44.5 19.5t18.5 46.5t-18.5 46t-44.5 19zM513 528q-26 0 -44.5 -19t-18.5 -46t18.5 -46.5t44.5 -19.5t44.5 19.5t18.5 46.5t-18.5 46t-44.5 19zM766 528q-26 0 -44.5 -19t-18.5 -46t18.5 -46.5t44.5 -19.5
t44.5 19.5t18.5 46.5t-18.5 46t-44.5 19zM893 856h-759q-53 0 -90 -38t-37 -93v-492q0 -55 38 -97t91 -42h193l173 -180q11 -12 22 0q102 116 168 180h198q53 0 91 42t38 97v492q0 55 -37 93t-89 38zM956 233q0 -28 -20 -51t-46 -23h-194q-11 0 -22 -6t-17 -12l-6 -6
l-136 -142l-136 142q-26 24 -49 24h-194q-26 0 -46 23t-20 51v492q0 27 18.5 46.5t45.5 19.5h759q26 0 44.5 -19.5t18.5 -46.5v-492v0z" />
    <glyph glyph-name="choice-d" unicode="&#xe671;" 
d="M954 733v0q-193 -201 -277 -288q-18 -19 -21 -26t-3 -35q0 -47 0.5 -112.5t1 -126t0.5 -114t0.5 -87t0.5 -32.5q0 -1 -0.5 -3.5t-2 -8.5t-5 -10.5t-10.5 -8.5t-16 -4q-28 0 -28 35v481q0 11 -0.5 20.5t-0.5 14t0.5 9t1.5 8.5q1 5 6.5 11.5t10.5 11t12.5 11t9.5 8.5
q37 35 106.5 107.5t120.5 127l51 54.5v1q11 9 11 23q0 13 -9 22t-22 9h-776q-13 0 -21.5 -9t-8.5 -22q0 -14 10 -23v-1q187 -200 273 -282q1 -1 9 -8.5t14 -13.5t12.5 -13.5t8.5 -13.5q1 -4 1.5 -18.5t0.5 -26.5v-12v-235q-1 -1 -2.5 -3t-9 -6t-19.5 -4q-11 0 -18 3.5
t-9 6.5l-2 4q-4 122 0 235q0 19 -4 31q-3 10 -20 25q-40 37 -109 108.5t-118.5 125.5l-49.5 54h1q-29 27 -29 67q0 38 26.5 65t63.5 27h776q37 0 63.5 -27t26.5 -65q0 -40 -28 -67zM954 733z" />
    <glyph glyph-name="share" unicode="&#xe672;" 
d="M211 246q146 168 382 186q70 5 117 -2v-186l313 281l-313 282v-187q-302 2 -433 -196q-56 -88 -66 -178zM105 682h334v104h-439v-104h77l-77 -1v-625h105v626zM835 56h-835v-104h939v292h-104v-188z" />
    <glyph glyph-name="mobile-a" unicode="&#xe673;" 
d="M753 -116h-465q-52 0 -88 37t-36 89v756q0 52 36 89t88 37h465q52 0 88.5 -37t36.5 -89v-756q0 -52 -36.5 -89t-88.5 -37zM836 766q0 26 -29.5 55t-54.5 29h-462q-26 0 -55.5 -29t-29.5 -55l1 -42h630v42zM836 682h-630v-525h630v525zM836 115h-630v-105q0 -26 29 -55
t55 -29h462q25 0 54.5 29t29.5 55v105zM520.5 -22q-19.5 0 -33 14t-13.5 33.5t13.5 33.5t33 14t33 -14t13.5 -33.5t-13.5 -33.5t-33 -14z" />
    <glyph glyph-name="phone-b" unicode="&#xe674;" 
d="M752 -124q-80 0 -210 80q-124 76 -242 191l-24 25q-115 118 -192 242q-80 130 -80 210q0 77 72 173q13 18 29 36t45 39t51 21q30 0 72 -44q31 -32 67 -83q33 -48 56 -91q27 -51 27 -75q0 -33 -33 -56q-15 -10 -50 -25q-29 -13 -36 -18q6 -25 42 -77q42 -63 92 -114
q51 -50 114 -93q53 -36 77 -41q6 7 18 36q15 35 25 49q23 34 56 34q25 0 75 -27q44 -23 92 -56q50 -36 82 -67q44 -42 44 -72q0 -22 -21 -51t-39 -45t-36 -29q-95 -72 -173 -72zM342 190q114 -110 231 -183q116 -71 179 -71q56 0 134 57q34 25 55 50q16 19 20 29
q-5 11 -32 36t-74 58q-43 30 -81 49q-32 17 -46 20q-4 -3 -9.5 -12.5t-15.5 -34.5q-14 -30 -22 -42q-20 -31 -48 -31h-2q-37 1 -113 53q-67 46 -122 99l-1 1q-53 55 -99 122q-52 76 -53 113q0 29 30 50q13 8 44 21q24 11 33.5 16.5t12.5 9.5q-2 14 -19 46q-20 38 -50 81
q-32 47 -57.5 73.5t-36.5 31.5q-10 -3 -29 -19q-25 -22 -49 -55q-58 -78 -58 -134q0 -63 72 -179q72 -118 183 -231z" />
    <glyph glyph-name="email" unicode="&#xe675;" 
d="M884 780h-744q-56 0 -95.5 -39t-39.5 -94v-510q0 -55 39.5 -94t95.5 -39h744q56 0 96 39t40 94v510q0 55 -40 94t-96 39zM963 137q0 -32 -23 -55t-56 -23h-744q-32 0 -55.5 23t-23.5 55v510q0 2 1 10l452 -348l383 299l-35 44l-348 -273l-424 327q22 19 50 19h744
q33 0 56 -23t23 -55v-510v0z" />
    <glyph glyph-name="address-a" unicode="&#xe676;" 
d="M510 623q-75 0 -127.5 -53t-52.5 -127.5t52.5 -127t127.5 -52.5t128 52.5t53 127t-53 127.5t-128 53zM510 314q-54 0 -91.5 38t-37.5 91t37.5 91t91.5 38t92 -38t38 -91t-38 -91t-92 -38zM916 622q-34 78 -94 139q-61 62 -140 95q-82 35 -171 35t-171 -35
q-78 -33 -139 -95q-61 -61 -94 -139q-35 -81 -35 -169q0 -110 56 -223q46 -95 126 -181q68 -74 141.5 -123.5t115.5 -49.5t116 49t141 122q80 87 127 182q55 113 55 224q0 88 -34 169zM846 253q-43 -88 -117 -169q-64 -69 -133 -114q-59 -40 -84.5 -40t-84.5 40
q-69 46 -133 115q-75 81 -118 169q-50 101 -50 199q0 77 31 148q29 69 82.5 122.5t122.5 83.5q71 30 149 30t150 -30q69 -30 122.5 -83.5t82.5 -122.5q30 -71 30 -148q0 -99 -50 -200z" />
    <glyph glyph-name="edit" unicode="&#xe659;" 
d="M927 -123h-831q-38 0 -65 27t-27 65v830q0 38 27 65t65 27h554q12 0 21 -9t9 -21.5t-9 -21.5t-21 -9h-523q-26 0 -44 -18t-18 -44v-768q0 -25 18 -43t44 -18h769q25 0 43 18t18 43v553q0 13 9 22t22 9t22 -9t9 -22v-584q0 -38 -27 -65t-65 -27zM424 284q-9 -9 -21.5 -9
t-21.5 9t-9 22t9 22l553 555q9 9 21.5 9t21.5 -9t9 -21.5t-9 -21.5z" />
    <glyph glyph-name="choice-c" unicode="&#xe65a;" 
d="M365 27q-19 0 -33 13l-310 311q-14 13 -14 32t13.5 32.5t32.5 13.5t33 -13l278 -279l574 575q14 13 33 13t32.5 -13t13.5 -32t-14 -33l-607 -607q-13 -13 -32 -13zM365 27z" />
    <glyph glyph-name="fax" unicode="&#xe679;" 
d="M25 638h876q30 0 51.5 -21.5t21.5 -52.5v-439l24 25h-146l24 -25v122h-730v-122l25 25h-49q-30 0 -51.5 21.5t-21.5 51.5v439zM25 687h-25v-464q0 -51 36 -86.5t86 -35.5h73v122l-24 -25h681l-24 25v-122h194v463q0 51 -35.5 87t-85.5 36h-876zM755 -95l24 25h-535
l24 -25v223q0 10 -7 17.5t-17 7.5t-17.5 -7.5t-7.5 -17.5v-223q0 -10 7.5 -17t17.5 -7h535q10 0 17 7t7 17v223q0 10 -7 17.5t-17 7.5t-17 -7.5t-7 -17.5v-223zM207 467h317v49h-317v-49zM219 662v195l-24 -24h633l-25 24v-195h49v220h-681v-220h48z" />
    <glyph glyph-name="upload" unicode="&#xe67a;" 
d="M963 678h-248v9q0 39 -27.5 66.5t-66.5 27.5h-218q-38 0 -65.5 -27.5t-27.5 -66.5v-9h-248q-25 0 -42 -17t-17 -41v-573q0 -25 17 -42t42 -17h901q24 0 41.5 17t17.5 42v573q0 24 -17.5 41t-41.5 17zM512.5 61q-112.5 0 -192.5 79.5t-80 192.5t80 192.5t192.5 79.5
t192 -79.5t79.5 -192.5t-79.5 -192.5t-192 -79.5zM329 333q0 -36 14 -70q22 -51 67 -82q-1 -1 2.5 -3t9.5 -5.5t14 -7t18.5 -6.5t21.5 -5l34 -4h2q38 0 72 14q50 22 80 67q1 -1 3.5 2t5.5 9.5t6.5 14.5t7 18.5t5.5 20.5l4 35v2q0 37 -14 70q-22 51 -67 82q0 1 -3 3t-9.5 5.5
t-14.5 7t-18.5 7t-20.5 5.5l-35 3h-2q-36 0 -70 -14q-51 -21 -82 -67q0 1 -2.5 -2t-6 -9.5t-6.5 -14.5t-6.5 -18.5t-5.5 -20.5l-4 -35v-2zM329 333z" />
    <glyph glyph-name="bounb" unicode="&#xe67b;" 
d="M14 255l19 -60l17 60h8l18 -60l19 60h9l-24 -71h-8l-17 60l-18 -60h-8l-25 71h10zM115 255l19 -60l18 60h8l17 -60l20 60h9l-25 -71h-7l-18 60l-18 -60h-8l-24 71h9zM216 255l19 -60l18 60h8l18 -60l19 60h9l-24 -71h-8l-18 60l-18 -60h-8l-24 71h9zM330 196q2 -2 2 -5
t-2 -5t-5 -2t-5 2t-2 5t2 5t5 2t5 -2zM360 283v-43q7 17 24 17q15 0 24 -12q7 -10 7 -26q0 -15 -7 -26q-9 -11 -24 -11q-18 0 -25 16v-14h-8v99h9zM366 241q-7 -8 -7 -21v-2q0 -12 6 -20q6 -9 18 -9t18 9q6 8 6 21.5t-6 21.5q-6 9 -18 9q-11 0 -17 -9zM486 245
q8 -10 8 -25.5t-8 -26.5q-10 -11 -25.5 -11t-24.5 11t-9 26q0 16 9 26q9 12 24.5 12t25.5 -12zM442 240q-6 -8 -6 -20.5t6 -20.5q7 -10 19 -10t19 10q6 8 6 20q0 13 -6 21q-7 9 -19 9t-19 -9zM517 255v-43q0 -12 5 -17q5 -6 15 -6q8 0 14 6.5t7 16.5v43h8v-71h-8v12
q-8 -14 -23 -14q-26 0 -26 29v44h8zM641 228v-44h-8v43q0 22 -20 22q-9 0 -15 -6t-6 -16v-43h-9v71h9v-12q3 6 9 10t14 4q26 0 26 -29zM666 283v-43q8 17 25 17q15 0 23 -12q8 -10 8 -26q0 -15 -8 -26t-23 -11q-18 0 -25 16v-14h-8v99h8zM672 241q-6 -8 -6 -21v-2
q0 -12 6 -20q6 -9 18 -9q11 0 18 9q6 8 6 21.5t-6 21.5q-7 9 -19 9q-11 0 -17 -9zM751 196q2 -2 2 -5t-3 -5q-2 -2 -4 -2q-4 0 -5 2q-2 2 -2 5t2 5q1 2 4.5 2t5.5 -2zM822 250.5q8 -6.5 10 -18.5h-8q-2 9 -7.5 13t-14.5 4q-12 0 -18 -8q-7 -8 -7 -22t6.5 -22t17.5 -8
q20 0 23 20h8q-2 -13 -10 -20t-21 -7q-15 0 -24 11q-8 10 -8 26t8 26q9 12 25 12q12 0 20 -6.5zM901 245q9 -10 9 -25.5t-9 -26.5q-10 -11 -25 -11t-25 11q-9 11 -9 26q0 16 9 26q9 12 25 12t25 -12zM857 240q-6 -8 -6 -20.5t6 -20.5q7 -10 19 -10t19 10q6 8 6 20
q0 13 -6 21q-7 9 -19 9t-19 -9zM975 242q3 7 9 11t13 4q11 0 17.5 -7t6.5 -20v-46h-8v45q0 10 -4 15q-5 5 -14 5q-8 0 -13 -5q-5 -6 -5 -15v-45h-8v45q0 20 -18 20q-8 0 -13 -6q-6 -6 -6 -15v-44h-8v71h8v-11q8 13 21 13q17 0 22 -15zM49 494q-14 -46 -35 -70l-11 9
q22 24 34 66zM102 589v-42v-4.5v-3.5h82q-1 -66 -5 -106q-3 -41 -12 -56q-8 -15 -26 -17h-29l-3 13h25q20 0 27 28t9 124h-69q-3 -62 -20 -100q-20 -42 -65 -66l-8 12q44 23 63 65q13 36 17 89h-65v14h65v3.5v4.5v42h14zM235 423l-13 -6q-17 44 -36 77l12 6q20 -36 37 -77z
M303 494q-14 -46 -35 -70l-11 9q22 24 34 66zM356 589v-42v-4.5v-3.5h82q-1 -66 -5 -106q-4 -41 -12 -56t-27 -17h-28l-3 13h25q20 0 27 28t9 124h-69q-3 -62 -20 -100q-20 -42 -65 -66l-8 12q44 23 63 65q13 36 16 89h-64v14h65v3.5v4.5v42h14zM488 423l-12 -6
q-17 44 -36 77l12 6q19 -36 36 -77zM559 520v42q-14 -2 -40 -5l-3 13q48 4 88 16l5 -13q-15 -4 -37 -9v-44h37v-13h-37v-14q23 -19 46 -42l-8 -12q-22 26 -38 40v-120h-13v125q-16 -40 -44 -72l-6 15q34 35 48 80h-41v13h43zM743 437l-28 -4v-74h-14v71l-81 -13l-2 14l83 14
v144h14v-142l25 4zM680 475l-10 -10q-18 20 -49 43l10 9q29 -21 49 -42zM687 535l-10 -10q-18 20 -48 41l10 10q29 -21 48 -41zM772 361l-3 13q10 -1 19 -1q11 0 11 12v66q-53 -23 -115 -28l78 29q20 6 37 13v63h-32v14h32v48h14v-48h28v-14h-28v-57q14 6 29 15v-14
q-12 -7 -29 -15v-75q0 -21 -20 -21h-21zM914 551v38h14v-38h62v-12h-62v-46h52v-12q-15 -44 -46 -74q25 -21 64 -38l-7 -11q-41 18 -67 40q-30 -25 -74 -40l-6 11q42 15 71 38q-33 32 -45 73h-13v13h57v46h-62v12h62zM924 415q29 28 43 65h-84q11 -36 41 -65z" />
    <glyph glyph-name="attention" unicode="&#xe67c;" 
d="M939.5 -122q-13.5 0 -23 9.5t-9.5 23.5q0 101 -53 186.5t-144 135t-199 49.5h-9h-7v0h-10q-102 -7 -186.5 -58t-133.5 -134t-49 -179q0 -14 -9.5 -23.5t-23.5 -9.5t-23.5 9.5t-9.5 23.5q0 145 91 262q82 103 209 148q-68 40 -107 111t-39 155q0 124 89.5 212t215.5 88
t215.5 -88t89.5 -212q0 -121 -86 -209q-10 -10 -24 -10t-23.5 9.5t-9.5 23.5t9 24q67 68 67 162q0 97 -69.5 165.5t-168.5 68.5t-168.5 -68.5t-69.5 -165.5q0 -98 61 -166.5t153 -72.5q12 1 26 1q94 0 179.5 -35t147.5 -93.5t98.5 -139.5t36.5 -170q0 -14 -10 -23.5
t-23.5 -9.5z" />
    <glyph glyph-name="view" unicode="&#xe67d;" 
d="M1015 403q-262 333 -539 316q-99 -6 -196 -58q-76 -41 -147 -109q-80 -76 -126 -152q-5 -7 -5 -16v-1.5v-0.5q0 -9 5 -16q46 -76 126 -153q71 -68 147 -109q97 -52 196 -58q13 -1 26 -1q263 0 513 318q6 8 6 19v1v1q0 11 -6 19v0zM480 107q-157 10 -303 149
q-62 59 -108 127q46 68 108 126q146 140 303 149q237 14 472 -275q-235 -290 -472 -276zM511.5 528q-62.5 0 -106.5 -44t-44 -106t44 -106.5t106.5 -44.5t106.5 44.5t44 106.5t-44 106t-106.5 44zM511 289q-37 0 -63 26t-26 63t26 63t63 26t63 -26t26 -63t-26 -63t-63 -26z
" />
    <glyph glyph-name="bbmoney" unicode="&#xe67e;" 
d="M512.5 889q-102.5 0 -196 -40t-161.5 -107.5t-108 -161t-40 -196.5t40 -196.5t108 -161t161.5 -107.5t196.5 -40t196.5 40t161 107.5t107.5 161t40 196.5t-40 196.5t-107.5 161t-161.5 107.5t-196.5 40zM524.5 47q-99.5 0 -170 70t-70.5 170v359q0 35 24.5 59.5t59 24.5
t59 -24.5t24.5 -59.5v-130q36 11 73 11q100 0 170.5 -70.5t70.5 -170t-70.5 -169.5t-170 -70zM423 287v0q0 -42 29.5 -71.5t71.5 -29.5t72 29.5t30 71.5v0v0q0 42 -30 71.5t-72 29.5t-71.5 -29.5t-29.5 -71.5v0z" />
    <glyph glyph-name="pay-s" unicode="&#xe661;" 
d="M512 892q-103 0 -197 -40.5t-162 -108.5t-108.5 -162t-40.5 -196.5t40.5 -196.5t108.5 -162t162 -108.5t197 -40.5t197 40.5t162 108.5t108 162t40 196.5t-40 196.5t-108 162t-162 108.5t-197 40.5zM804 505l-349 -336q-7 -6 -19.5 -6t-18.5 6l-184 184q-10 9 -10 22
t9.5 22.5t22.5 9.5t22 -10l165 -165l330 318q9 9 22 9t22 -9q0 -38 -12 -45z" />
    <glyph glyph-name="pay-f" unicode="&#xe662;" 
d="M511.5 891q-209.5 0 -358 -148.5t-148.5 -358t148.5 -358t358 -148.5t358 148.5t148.5 358t-148.5 358t-358 148.5zM757 186l-47 -47l-187 187l-188 -187l-47 47l188 187l-188 188l47 47l188 -188l187 188l47 -47l-187 -188z" />
    <glyph glyph-name="delete-w" unicode="&#xe681;" 
d="M353 68v515q0 11 -8 19t-19.5 8t-19.5 -8t-8 -19v-515q0 -12 8 -20t19.5 -8t19.5 8t8 20zM911.5 634q-11.5 0 -19.5 -8t-8 -20v-632q0 -18 -12.5 -30.5t-30.5 -12.5h-656q-18 0 -30.5 12.5t-12.5 30.5v632q0 12 -8 20t-19 8q-18 0 -25 -16l-3 2v-646q0 -41 29 -69.5
t69 -28.5h656q40 0 69 28.5t29 69.5v632q0 12 -8 20t-19.5 8zM541 68v515q0 11 -8.5 19t-19.5 8t-19.5 -8t-8.5 -19v-515q0 -12 8.5 -20t19.5 -8t19.5 8t8.5 20zM728 68v515q0 11 -8 19t-19.5 8t-19.5 -8t-8 -19v-515q0 -12 8 -20t19.5 -8t19.5 8t8 20zM982 798h-268l-86 85
q-8 9 -20 9h-190q-12 0 -20 -9l-85 -85h-269q-11 0 -19 -8t-8 -19.5t8 -19.5t19 -8h283q12 0 21 8l85 85h160l85 -85q9 -8 21 -8h283q11 0 19 8t8 19.5t-8 19.5t-19 8z" />
    <glyph glyph-name="shopping-w" unicode="&#xe664;" 
d="M371 212q-11 0 -18.5 7t-8.5 18t6.5 19t18.5 9q348 21 450 26q23 1 40.5 6t25.5 11t13 13.5t6 11t1 6.5t1 6q53 216 62 316q4 38 -10 51q-7 7 -22 7h-3h-635q-11 0 -19 8t-8 18.5t8 18.5t19 8h634q37 3 62 -21q33 -31 27 -95q-9 -97 -63 -321q-1 -14 -7.5 -29t-21 -30.5
t-42.5 -26t-65 -11.5q-94 -4 -450 -26h-1zM382 53q-37 0 -66.5 10.5t-45.5 26.5t-24.5 31.5t-10.5 30.5q-69 471 -81 591q-3 26 -11 45t-16.5 27.5t-20 12.5t-15.5 4.5t-8 0.5h-57q-11 0 -18.5 7.5t-7.5 18.5t7.5 19t18.5 8h55q16 1 34 -4.5t38 -19.5t35 -43.5t19 -70.5
q12 -127 81 -589q0 -3 1.5 -7.5t8 -13.5t16 -15.5t28.5 -11.5t43 -5q159 2 528 0q11 0 19 -8t7.5 -19t-8 -18.5t-18.5 -7.5v0q-437 1 -527 0h-4zM273 -59.5q0 -27.5 19.5 -47t46.5 -19.5t46.5 19.5t19.5 47t-19.5 47t-46.5 19.5t-46.5 -19.5t-19.5 -47zM781 -59.5
q0 -27.5 19 -47t46.5 -19.5t47 19.5t19.5 47t-19.5 47t-47 19.5t-46.5 -19.5t-19 -47z" />
    <glyph glyph-name="pulldown" unicode="&#xe684;" 
d="M631 611q-49 63 -118.5 63t-118.5 -63l-355 -365q-50 -63 -28 -108t102 -45h799q80 0 102 45t-28 108z" />
    <glyph glyph-name="pullup" unicode="&#xe687;" 
d="M394 157q49 -64 118.5 -63.5t118.5 63.5l355 364q50 64 28 108.5t-102 44.5h-799q-80 0 -102 -45t28 -108z" />
    <glyph glyph-name="shopping-b" unicode="&#xe667;" 
d="M513 889q-103 0 -196.5 -40t-161.5 -107.5t-108 -161.5t-40 -196.5t40 -196t108 -161.5t161.5 -108t196.5 -40t196.5 40t161 108t107.5 161.5t40 196t-40 196.5t-107.5 161.5t-161 107.5t-196.5 40zM392 64q-16 0 -27.5 11.5t-11.5 27.5t11.5 27.5t27.5 11.5t27.5 -11.5
t11.5 -27.5t-11.5 -27.5t-27.5 -11.5zM691 64q-16 0 -27.5 11.5t-11.5 27.5t11.5 27.5t27.5 11.5t27.5 -11.5t11.5 -27.5t-11.5 -27.5t-27.5 -11.5zM730 169v0q-258 1 -311 0h-2q-42 0 -63 19t-24 40q-40 277 -47 348q-2 15 -7 26t-10 16t-11.5 7.5t-9 3t-4.5 0.5h-33
q-7 0 -11.5 4.5t-4.5 11t4.5 11t11.5 4.5h32q22 2 45.5 -17t28.5 -64q7 -75 47 -347q1 -2 2 -4.5t4.5 -8t9 -9.5t17 -7t25.5 -2q94 1 311 0q6 -1 10.5 -5.5t4.5 -11t-4.5 -11t-10.5 -4.5zM793 525q-5 -58 -37 -189q-1 -20 -20 -38t-60 -20q-56 -2 -265 -15h-1q-6 0 -10.5 4
t-4.5 10q-1 7 3.5 12t10.5 5q204 13 266 15q13 1 23 4t15 6.5t8 8t3.5 6.5t0.5 4t1 3q31 127 36 186q2 23 -6 31q-4 4 -13 4h-1h-375q-6 0 -10.5 4.5t-4.5 11t4.5 11t10.5 4.5h374q21 2 37 -13q19 -18 15 -55z" />
    <glyph glyph-name="delete-b" unicode="&#xe668;" 
d="M510.5 888q-102.5 0 -195.5 -40t-160.5 -107.5t-107.5 -160.5t-40 -195.5t40 -195.5t107.5 -160.5t160.5 -107.5t195.5 -40t196 40t160.5 107.5t107 160.5t40 195.5t-40 195.5t-107 160.5t-160.5 107.5t-196 40zM684 353h-346q-13 1 -22 10t-9 21.5t9 22t22 9.5h346
q13 0 22 -9.5t9 -22t-9 -21.5t-22 -10z" />
    <glyph glyph-name="changephone" unicode="&#xe68a;" 
d="M697 889h-371q-34 0 -59 -24.5t-25 -59.5v-843q0 -34 25 -59t59 -25h371q35 0 59.5 25t24.5 59v843q0 35 -24.5 59.5t-59.5 24.5zM461 822h101q7 0 12 -5t5 -12t-5 -12t-12 -5h-101q-7 0 -12 5t-5 12t5 12t12 5zM512 -88q-21 0 -36 14.5t-15 35.5t15 36t36 15t35.5 -15
t14.5 -36t-14.5 -35.5t-35.5 -14.5zM748 47h-472v674h472v-674zM403 214q22 -9 45 -9q46 0 79 32.5t33 78.5v7q0 31 15.5 56.5t41.5 39.5q4 2 4 4q0 4 -4 4h-4q-23 0 -40 16v0q-15 16 -37 16q-21 0 -35.5 -14.5t-14.5 -35.5v-31q0 -34 -24 -58t-58 -24t-58 24t-24 58v8
q0 79 56 134.5t134.5 55.5t134.5 -55.5t56 -134.5q0 -82 -51.5 -136t-144.5 -58q-23 -2 -49 3.5t-41 11.5l-14 6v1zM403 214q22 -9 45 -9q46 0 79 32.5t33 78.5v7q0 31 15.5 56.5t41.5 39.5q4 2 4 4q0 4 -4 4h-4q-23 0 -40 16v0h-1q1 0 2 -1l-1 1q-15 16 -37 16
q-21 0 -35.5 -14.5t-14.5 -35.5v-18q0 -19 -13.5 -32t-32 -13t-31.5 13t-13 32v0q0 50 25 94l1 2q14 25 39 39.5t54 14.5q44 0 74 -29l4 -5q47 -50 47 -121q0 -75 -53 -128t-128 -53q-29 0 -57 9h1zM640 527q63 -57 63 -141q0 -82 -51.5 -136t-144.5 -58q-23 -2 -49 3.5
t-41 11.5l-14 6v1q27 -9 56 -9q75 0 128.5 53t53.5 128q0 71 -48 121q-3 4 -4 5q-30 29 -73 29q-30 0 -55 -14.5t-39 -39.5l2 3q26 43 69 67l-40 -30q37 33 94 33q52 0 93 -33v0zM573 443q-15 16 -37 16q-21 0 -35.5 -14.5t-14.5 -35.5v-18q0 -19 -13.5 -32t-32 -13
t-31.5 13t-13 32v5q0 39 27.5 66.5t66.5 27.5q48 0 76 -39q4 -5 6 -8q1 0 2 -1z" />
    <glyph glyph-name="changepwd" unicode="&#xe68e;" 
d="M511.5 -124q-103.5 0 -197.5 40t-162 108t-108 162t-40 197.5t40 197.5t108 162t162 108t197.5 40t197.5 -40t162 -108t108 -162t40 -197.5t-40 -197.5t-108 -162t-162 -108t-197.5 -40zM511.5 828q-90.5 0 -172.5 -35.5t-141.5 -95t-95 -141.5t-35.5 -172.5t35.5 -172.5
t95 -141.5t141.5 -95t172.5 -35.5t172.5 35.5t141.5 95t95 141.5t35.5 172.5t-35.5 172.5t-95 141.5t-141.5 95t-172.5 35.5zM714 560q7 12 3.5 24.5t-15 19t-24 3t-19.5 -14.5l-203 -352l-113 105q-9 10 -22 10.5t-23 -8.5t-10 -22.5t9 -22.5l145 -134q9 -10 22 -10t22 9
q2 1 59 99.5t113 196zM714 560z" />
    <glyph glyph-name="defaultcompany" unicode="&#xe68f;" 
d="M511 892q-103 0 -197 -40t-162 -108t-108.5 -162t-40.5 -197.5t40.5 -197.5t108.5 -162t162 -108t197 -40t197.5 40t162.5 108t108 162t40 197.5t-40 197.5t-108 162t-162.5 108t-197.5 40zM808 107q0 -12 -9 -20.5t-21 -8.5h-539q-12 0 -20.5 8.5t-8.5 20.5v39
q0 12 8.5 21t20.5 9h7v476q0 12 8.5 21t20.5 9h293q12 0 21 -9t9 -21v-177h132q12 0 21 -9t9 -21v-269h18q12 0 21 -9t9 -21v-39zM483 322h-123q-12 0 -20.5 -8.5t-8.5 -21.5v-8q0 -13 8.5 -21.5t20.5 -8.5h123q13 0 21.5 8.5t8.5 21.5v8q0 13 -8.5 21.5t-21.5 8.5zM483 451
h-123q-12 0 -20.5 -8.5t-8.5 -20.5v-9q0 -13 8.5 -21.5t20.5 -8.5h123q13 0 21.5 8.5t8.5 21.5v9q0 12 -8.5 20.5t-21.5 8.5zM483 590h-123q-12 0 -20.5 -8.5t-8.5 -21.5v-8q0 -13 8.5 -21.5t20.5 -8.5h123q13 0 21.5 8.5t8.5 21.5v8q0 13 -8.5 21.5t-21.5 8.5zM701 280h-78
q-11 0 -18 -7t-7 -17.5t7 -17.5t18 -7h78q11 0 18 7t7 17.5t-7 17.5t-18 7zM701 380h-78q-11 0 -18 -7.5t-7 -17.5t7 -17.5t18 -7.5h78q11 0 18 7.5t7 17.5t-7 17.5t-18 7.5zM701 330z" />
    <glyph glyph-name="contactman" unicode="&#xe690;" 
d="M438.5 325q-113.5 0 -194 80.5t-80.5 193.5t80.5 193.5t194 80.5t194 -80.5t80.5 -193.5t-80.5 -193.5t-194 -80.5zM438.5 814q-88.5 0 -152 -63t-63.5 -152t63.5 -152t152 -63t152 63t63.5 152t-63.5 152t-152 63zM842 -87q-12 0 -21 8.5t-9 21.5q0 31 -22 99l-5 17
q-37 117 -131.5 187t-215.5 70q-123 0 -221.5 -72.5t-135.5 -189.5q-16 -54 -16 -111q0 -13 -9 -21.5t-21 -8.5t-21 8.5t-9 21.5q0 66 20 128q42 137 156 221t257 84q141 0 250.5 -81.5t153.5 -217.5l5 -16q25 -77 25 -118q0 -13 -9 -21.5t-21 -8.5zM987 416h-256
q-12 0 -21 9t-9 21t9 21t21 9h256q12 0 21 -9t9 -21t-9 -21t-21 -9zM987 284h-195q-13 0 -21.5 9t-8.5 21t8.5 21t21.5 9h195q12 0 21 -9t9 -21t-9 -21t-21 -9zM987 152h-120q-12 0 -21 9t-9 21t9 21t21 9h120q12 0 21 -9t9 -21t-9 -21t-21 -9z" />
    <glyph glyph-name="image" unicode="&#xe692;" 
d="M1019 -13q0 -24 -17 -41t-41 -17h-897q-24 0 -41 17t-17 41v793q0 24 17 41t41 17h897q24 0 41 -17t17 -41v-793v0zM975 752q0 18 -13 31t-31 13h-837q-18 0 -31 -13t-13 -31v-738q0 -18 13 -31t31 -13h837q18 0 31 13t13 31v738zM259.5 683q-40.5 0 -69 -28.5t-28.5 -69
t28.5 -69t69 -28.5t69 28.5t28.5 69t-28.5 69t-69 28.5zM312 585q0 -22 -15.5 -37.5t-37.5 -15.5t-37.5 15.5t-15.5 37.5t15.5 37.5t37.5 15.5t37.5 -15.5t15.5 -37.5zM120 162l188 142l102 -105l253 254l237 -238l30 33l-267 268l-253 -251l-98 98l-217 -164zM916 179h-354
v-45h354v45zM916 77h-556v-44h556v44z" />
    <glyph glyph-name="message" unicode="&#xe693;" 
d="M280 499q-29 0 -49 -20.5t-20 -49t20 -49t49 -20.5t49 20.5t20 49t-20 49t-49 20.5zM510.5 499q-28.5 0 -49 -20.5t-20.5 -49t20.5 -49t49 -20.5t49 20.5t20.5 49t-20.5 49t-49 20.5zM510.5 844q-137.5 0 -254.5 -55.5t-185 -151t-68 -208.5q0 -82 38 -156.5t106 -132.5
l-52 -218l273 109q71 -17 142 -17q138 0 255 55.5t185 151.5t68 208.5t-68 208t-185 151t-254.5 55.5zM510 60q-66 0 -131 16q-5 1 -11 1v0q-9 0 -17 -3l-190 -76l31 132q6 27 -15 46q-62 51 -95 116.5t-33 136.5q0 100 62 185t168 134.5t231.5 49.5t231.5 -49.5t168 -134.5
t62 -185t-62 -185t-168 -134.5t-232 -49.5zM741 499q-29 0 -49 -20.5t-20 -49t20 -49t49 -20.5t49 20.5t20 49t-20 49t-49 20.5z" />
    <glyph glyph-name="nonetwork" unicode="&#xe694;" 
d="M792 31q-95 0 -162 67t-65.5 164t73.5 164q71 66 172 60q86 -6 149 -71.5t61 -163.5q-2 -90 -67.5 -155t-160.5 -65zM605 258q-1 -77 53.5 -131.5t129.5 -56.5q81 -1 136.5 54.5t56.5 133.5q0 76 -54 131q-52 53 -124 57q-84 5 -142 -52.5t-56 -135.5zM923 515
q-43 16 -48 17q-4 2 -12.5 4t-11.5 2q-3 1 -5 4q-33 31 -73 57q-53 36 -114 58q-42 16 -91 26q-19 3 -48 6q-26 2 -52 2q-37 1 -55 -1q-62 -6 -121 -24q-50 -16 -97 -42q-48 -26 -81 -54q-16 -14 -57 -52q-3 -3 -9 -10t-10 -10q-13 -10 -27 3q-5 4 -6.5 12t2.5 14
q9 12 13 17q26 27 36 36q157 136 356 198l-233 -111q2 1 19 9q57 28 108 40q41 10 57 13q21 4 45 5q56 3 85 3q23 -1 56 -6q49 -9 74 -15q28 -8 76 -27q20 -7 49 -23q43 -22 84 -54q35 -27 64 -57q11 -11 22 -25q6 -7 5 -15zM667 522q-36 -21 -45 -25q-3 -2 -7 0
q-35 16 -85 25q-13 2 -38 4q-33 2 -44 1q-41 -3 -69 -9q-50 -9 -101 -37q-35 -19 -59 -40q-16 -14 -41 -39q-3 -3 -16 -18q-5 -6 -14 -6.5t-15 4.5q-8 6 -9 15.5t4 15.5q29 36 55 56q36 28 43 33q63 42 143 61q22 4 52 7q40 3 61 2q27 -1 70 -9q36 -6 78 -24q3 -1 37 -17z
M529 400l-20 -40q-52 3 -55 3q-64 -3 -116 -40q-30 -21 -53 -54q-8 -11 -20 -10q-14 2 -19 17q-4 11 8 26q25 29 38 41q14 13 42 30q32 20 72 29q16 3 42 5q17 1 31 0q5 0 46 -7h4zM463 106q-18 -2 -33 11t-17 31q-4 21 8 37.5t33 20.5q6 1 18 0q18 -2 21 -19q3 -18 14 -49
q2 -7 -5 -15q-16 -19 -39 -17zM768 291v62q0 8 6 15t14 7q24 2 29 -19q1 -6 1 -16v-106q0 -11 -6 -19q-10 -13 -27 -8t-17 21v63zM768 166q0 24 25 26q10 0 17.5 -8t7.5 -18q-1 -11 -8 -18t-17 -7q-11 0 -18.5 8t-6.5 17z" />
    <glyph glyph-name="sendmessage" unicode="&#xe695;" 
d="M89 -88l47 201q-63 61 -97 136.5t-34 158.5q0 89 40.5 170t108.5 140t162 93.5t197 34.5t197 -34.5t162 -93.5t108 -140t40 -170.5t-40 -170.5t-108 -140t-162 -93.5t-197 -34.5q-98 0 -188 31zM513 803q-126 0 -233 -53t-169.5 -144t-62.5 -198q0 -76 33 -146t94 -125
l9 -9l-34 -147l175 65l8 -3q86 -31 180 -31q126 0 233 53t169 144t62 198.5t-62 198.5t-169 144t-233 53zM266 386.5q0 -21.5 17 -37t42 -15.5t42 15.5t17 37t-17 36.5t-42 15t-42 -15t-17 -36.5zM445 383.5q0 -21.5 17.5 -36.5t42 -15t42 15t17.5 36.5t-17.5 36.5t-42 15
t-42 -15t-17.5 -36.5zM641 387.5q0 -21.5 17.5 -36.5t42 -15t42 15t17.5 36.5t-17.5 36.5t-42 15t-42 -15t-17.5 -36.5zM641 388z" />
    </font>
</defs>
</svg>
